<svg xmlns="http://www.w3.org/2000/svg" xmlns:xlink="http://www.w3.org/1999/xlink" width="763" height="763" viewBox="0 0 763 763">
  <defs>
    <linearGradient id="linear-gradient" x1="1" x2="0.5" y2="1" gradientUnits="objectBoundingBox">
      <stop offset="0" stop-color="#ff9d00"/>
      <stop offset="1" stop-color="#ff0076"/>
    </linearGradient>
    <clipPath id="clip-FE_Favicon">
      <rect width="763" height="763"/>
    </clipPath>
  </defs>
  <g id="FE_Favicon" data-name="FE Favicon" clip-path="url(#clip-FE_Favicon)">
    <rect width="763" height="763"/>
    <g id="Group_6274" data-name="Group 6274" transform="translate(-263.992 297.989)">
      <g id="Group_6273" data-name="Group 6273" transform="translate(408.957 -99.291)">
        <g id="Group_46" data-name="Group 46" transform="translate(0)">
          <path id="Path_133" data-name="Path 133" d="M136.843,3.4V51.27H1.96V3.4ZM32.835,233.182V-13.207q0-24.983,9.319-41.439A60.216,60.216,0,0,1,67.694-79.329q16.22-8.228,36.851-8.228a134.719,134.719,0,0,1,25.539,2.244,169.219,169.219,0,0,1,17.287,4.039L136.558-33.4a73.537,73.537,0,0,0-8.75-2.244,53.5,53.5,0,0,0-10.6-1.047q-13.374,0-18.639,6.508T93.3-12.01V233.182Zm222.9,4.488q-33.721,0-57.98-14.436T160.4,182.243q-13.09-26.554-13.09-62.906,0-35.455,13.09-62.233t36.922-41.738Q221.159.407,253.314.407a110.6,110.6,0,0,1,40.337,7.256,90.453,90.453,0,0,1,32.725,21.766q14.015,14.511,21.84,36.427t7.825,51.237v17.5H171.5V95.1H298.986A50.83,50.83,0,0,0,293.3,70.718a42.567,42.567,0,0,0-15.722-16.68,44.109,44.109,0,0,0-23.263-6.059,44.908,44.908,0,0,0-24.4,6.657,46.723,46.723,0,0,0-16.576,17.8A52.751,52.751,0,0,0,207.215,97.2v37.549q0,17.054,6.047,29.471a44.653,44.653,0,0,0,17.145,19.148q11.1,6.732,26.322,6.732a54.758,54.758,0,0,0,18.5-2.992,38.055,38.055,0,0,0,14.37-8.976,39.261,39.261,0,0,0,9.106-14.661l56.059,3.89a82.016,82.016,0,0,1-17.429,37.025q-13.161,15.783-33.863,24.534T255.733,237.67Z" transform="translate(-1.96 87.557)" fill="#fff"/>
        </g>
        <path id="Path_134" data-name="Path 134" d="M49.746,66.059a40.863,40.863,0,0,1-29.97-12.465A40.863,40.863,0,0,1,7.31,23.623a40.369,40.369,0,0,1,12.465-29.7,41.009,41.009,0,0,1,29.97-12.377q16.974,0,29.7,12.377t12.731,29.7a39.892,39.892,0,0,1-5.923,21.306A45.449,45.449,0,0,1,70.787,60.312,40.034,40.034,0,0,1,49.746,66.059Z" transform="translate(380.195 258.46)" fill="url(#linear-gradient)"/>
      </g>
    </g>
  </g>
</svg>
