<svg xmlns="http://www.w3.org/2000/svg" xmlns:xlink="http://www.w3.org/1999/xlink" width="279.627" height="27.575" viewBox="0 0 279.627 27.575">
  <defs>
    <linearGradient id="linear-gradient" x1="1" x2="0.5" y2="1" gradientUnits="objectBoundingBox">
      <stop offset="0" stop-color="#ff9d00"/>
      <stop offset="1" stop-color="#ff0076"/>
    </linearGradient>
  </defs>
  <g id="Group_6278" data-name="Group 6278" transform="translate(-95.984 -60)">
    <g id="Group_6277" data-name="Group 6277">
      <g id="Group_6111" data-name="Group 6111" transform="translate(0 -3.5)">
        <path id="Path_5210" data-name="Path 5210" d="M155.137,13.278v3.244h-9.611V13.278ZM147.726,28.85v-16.7a5.415,5.415,0,0,1,.664-2.808,4.2,4.2,0,0,1,1.82-1.673,5.968,5.968,0,0,1,2.626-.558,10.079,10.079,0,0,1,1.82.152,12.582,12.582,0,0,1,1.232.274l-.771,3.244a5.459,5.459,0,0,0-.623-.152,4,4,0,0,0-.755-.071,1.673,1.673,0,0,0-1.328.441,1.844,1.844,0,0,0-.375,1.232V28.85Zm13.206.294a6.435,6.435,0,0,1-2.656-.522,4.2,4.2,0,0,1-1.84-1.551,4.6,4.6,0,0,1-.674-2.57,4.54,4.54,0,0,1,.477-2.18,3.858,3.858,0,0,1,1.3-1.419,6.287,6.287,0,0,1,1.87-.811,14.084,14.084,0,0,1,2.205-.385q1.358-.142,2.19-.269a3.058,3.058,0,0,0,1.206-.38.847.847,0,0,0,.375-.75v-.061a1.874,1.874,0,0,0-.6-1.49,2.515,2.515,0,0,0-1.708-.527,3.043,3.043,0,0,0-1.855.512,2.4,2.4,0,0,0-.912,1.282l-3.994-.324a5.463,5.463,0,0,1,1.2-2.458,5.8,5.8,0,0,1,2.306-1.6,8.831,8.831,0,0,1,3.28-.563,10.023,10.023,0,0,1,2.489.3,6.563,6.563,0,0,1,2.119.943,4.612,4.612,0,0,1,1.465,1.637,4.972,4.972,0,0,1,.537,2.388v10.5h-4.1V26.69h-.122a4.331,4.331,0,0,1-1,1.282,4.527,4.527,0,0,1-1.511.862A6.151,6.151,0,0,1,160.931,29.144Zm1.237-2.981a3.591,3.591,0,0,0,1.683-.38A2.943,2.943,0,0,0,165,24.754a2.666,2.666,0,0,0,.416-1.47V21.631a2.208,2.208,0,0,1-.553.238q-.35.106-.786.193t-.872.152q-.436.066-.791.117a5.342,5.342,0,0,0-1.328.355,2.144,2.144,0,0,0-.882.654,1.627,1.627,0,0,0-.314,1.019,1.549,1.549,0,0,0,.644,1.343A2.742,2.742,0,0,0,162.168,26.163Zm17.21,2.991a7.918,7.918,0,0,1-4.111-1.019,6.777,6.777,0,0,1-2.636-2.834,9.134,9.134,0,0,1-.918-4.177,9.09,9.09,0,0,1,.928-4.2,6.861,6.861,0,0,1,2.641-2.829,7.829,7.829,0,0,1,4.075-1.019,8.111,8.111,0,0,1,3.569.74,5.965,5.965,0,0,1,2.423,2.078,6.108,6.108,0,0,1,.983,3.143h-4.075a3.185,3.185,0,0,0-.907-1.881,2.639,2.639,0,0,0-1.921-.715,2.892,2.892,0,0,0-1.749.542,3.5,3.5,0,0,0-1.161,1.576,6.719,6.719,0,0,0-.416,2.5,6.939,6.939,0,0,0,.411,2.535,3.484,3.484,0,0,0,1.161,1.592,3.079,3.079,0,0,0,3.087.243,2.6,2.6,0,0,0,.983-.887,3.379,3.379,0,0,0,.512-1.4h4.075a6.383,6.383,0,0,1-.968,3.138,5.9,5.9,0,0,1-2.387,2.114A7.96,7.96,0,0,1,179.379,29.154Zm19-6.934V13.278H202.7V28.85h-4.146V26.021h-.162a4.608,4.608,0,0,1-1.749,2.2,5.164,5.164,0,0,1-2.976.831,5.248,5.248,0,0,1-2.747-.71,4.846,4.846,0,0,1-1.85-2.017,6.935,6.935,0,0,1-.674-3.133V13.278h4.319v9.145a3.15,3.15,0,0,0,.74,2.18,2.518,2.518,0,0,0,1.957.8,3.071,3.071,0,0,0,1.46-.36,2.784,2.784,0,0,0,1.1-1.07A3.322,3.322,0,0,0,198.383,22.219ZM209.754,8.087V28.85h-4.319V8.087Zm11.016,5.191v3.244h-9.378V13.278Zm-7.249-3.731h4.319V24.064a1.937,1.937,0,0,0,.182.928,1,1,0,0,0,.512.461,2.052,2.052,0,0,0,.765.132,3.367,3.367,0,0,0,.608-.056l.466-.086.679,3.214q-.324.1-.912.238a7.625,7.625,0,0,1-1.429.167,6.528,6.528,0,0,1-2.732-.416,3.817,3.817,0,0,1-1.82-1.48,4.526,4.526,0,0,1-.639-2.535Zm12.01,25.142A8.8,8.8,0,0,1,224,34.562a5.8,5.8,0,0,1-1.181-.319l.973-3.224a5.34,5.34,0,0,0,1.374.253,1.751,1.751,0,0,0,1.064-.284,2.13,2.13,0,0,0,.735-1.034l.253-.659-5.586-16.018h4.542l3.224,11.436h.162l3.254-11.436h4.572L231.33,30.532a7.381,7.381,0,0,1-1.181,2.195,4.97,4.97,0,0,1-1.881,1.45A6.629,6.629,0,0,1,225.531,34.689Zm20.343-5.515a7.269,7.269,0,0,1-3.878-1,6.585,6.585,0,0,1-2.5-2.8,9.463,9.463,0,0,1-.877-4.192,9.661,9.661,0,0,1,.877-4.222,6.872,6.872,0,0,1,2.453-2.859,6.589,6.589,0,0,1,3.685-1.029,7.382,7.382,0,0,1,2.4.406,5.986,5.986,0,0,1,2.159,1.313,6.353,6.353,0,0,1,1.551,2.4,10.2,10.2,0,0,1,.578,3.67v1.014h-12V19.806h9.57a5.146,5.146,0,0,0-.522-2.352,4.019,4.019,0,0,0-1.48-1.632,4.171,4.171,0,0,0-2.256-.6,4.293,4.293,0,0,0-2.469.7,4.692,4.692,0,0,0-1.6,1.83,5.361,5.361,0,0,0-.558,2.413V21.55a6.6,6.6,0,0,0,.613,2.986,4.318,4.318,0,0,0,1.708,1.855,4.989,4.989,0,0,0,2.545.634,5.133,5.133,0,0,0,1.708-.269,3.563,3.563,0,0,0,1.323-.811,3.636,3.636,0,0,0,.862-1.353l2.311.649a5.085,5.085,0,0,1-1.227,2.063,5.89,5.89,0,0,1-2.129,1.379A7.823,7.823,0,0,1,245.874,29.174Zm11.776-9.692V28.85h-2.393V13.278h2.311v2.433h.2a4.48,4.48,0,0,1,1.663-1.911,5.2,5.2,0,0,1,2.879-.725,5.714,5.714,0,0,1,2.768.644,4.405,4.405,0,0,1,1.845,1.947,7.263,7.263,0,0,1,.659,3.29V28.85h-2.393V19.117a4.055,4.055,0,0,0-.953-2.864,3.389,3.389,0,0,0-2.616-1.029,4.146,4.146,0,0,0-2.043.5,3.545,3.545,0,0,0-1.414,1.45A4.787,4.787,0,0,0,257.65,19.482Zm20.373-6.2v2.028h-8.07V13.278Zm-5.718-3.731H274.7V24.389A3.028,3.028,0,0,0,275,25.9a1.467,1.467,0,0,0,.77.669,2.964,2.964,0,0,0,1,.167,3.778,3.778,0,0,0,.649-.046q.253-.046.406-.076l.487,2.149a4.978,4.978,0,0,1-1.784.284,4.781,4.781,0,0,1-1.982-.436,3.9,3.9,0,0,1-1.6-1.328,3.792,3.792,0,0,1-.634-2.251Zm14.98,19.627a7.269,7.269,0,0,1-3.878-1,6.585,6.585,0,0,1-2.5-2.8,9.463,9.463,0,0,1-.877-4.192,9.661,9.661,0,0,1,.877-4.222,6.872,6.872,0,0,1,2.453-2.859,6.589,6.589,0,0,1,3.685-1.029,7.382,7.382,0,0,1,2.4.406,5.986,5.986,0,0,1,2.159,1.313,6.353,6.353,0,0,1,1.551,2.4,10.2,10.2,0,0,1,.578,3.67v1.014h-12V19.806h9.57a5.147,5.147,0,0,0-.522-2.352,4.019,4.019,0,0,0-1.48-1.632,4.171,4.171,0,0,0-2.256-.6,4.293,4.293,0,0,0-2.469.7,4.692,4.692,0,0,0-1.6,1.83,5.361,5.361,0,0,0-.558,2.413V21.55a6.6,6.6,0,0,0,.613,2.986,4.318,4.318,0,0,0,1.708,1.855,4.989,4.989,0,0,0,2.545.634,5.133,5.133,0,0,0,1.708-.269,3.563,3.563,0,0,0,1.323-.811,3.636,3.636,0,0,0,.862-1.353l2.311.649a5.084,5.084,0,0,1-1.227,2.063,5.89,5.89,0,0,1-2.129,1.379A7.823,7.823,0,0,1,287.286,29.174Zm9.384-.324V13.278h2.311V15.63h.162a3.739,3.739,0,0,1,1.541-1.876,4.536,4.536,0,0,1,2.514-.72q.264,0,.659.01t.6.03v2.433q-.122-.03-.553-.1a6,6,0,0,0-.907-.066,4.243,4.243,0,0,0-2.023.471,3.6,3.6,0,0,0-1.4,1.3A3.5,3.5,0,0,0,299.062,19V28.85Zm17.656-15.572v2.028h-8.07V13.278Zm-5.718-3.731H311V24.389a3.028,3.028,0,0,0,.3,1.516,1.467,1.467,0,0,0,.771.669,2.964,2.964,0,0,0,1,.167,3.778,3.778,0,0,0,.649-.046q.253-.046.406-.076l.487,2.149a4.978,4.978,0,0,1-1.784.284,4.781,4.781,0,0,1-1.982-.436,3.9,3.9,0,0,1-1.6-1.328,3.792,3.792,0,0,1-.634-2.251Zm13.2,19.668a6.279,6.279,0,0,1-2.687-.563,4.417,4.417,0,0,1-2.626-4.222,4.024,4.024,0,0,1,.527-2.175,3.734,3.734,0,0,1,1.409-1.313,7.526,7.526,0,0,1,1.952-.715q1.07-.238,2.154-.38,1.419-.182,2.306-.279a3.528,3.528,0,0,0,1.3-.329.854.854,0,0,0,.411-.811v-.081a3.187,3.187,0,0,0-.816-2.332,3.318,3.318,0,0,0-2.469-.831,4.3,4.3,0,0,0-2.687.75,4.435,4.435,0,0,0-1.369,1.6l-2.271-.811a5.472,5.472,0,0,1,1.627-2.215,6.132,6.132,0,0,1,2.23-1.115,9.34,9.34,0,0,1,2.388-.319,9.825,9.825,0,0,1,1.729.177,5.651,5.651,0,0,1,1.9.725,4.245,4.245,0,0,1,1.526,1.652,6.147,6.147,0,0,1,.608,2.96V28.85h-2.393V26.741h-.122a4.212,4.212,0,0,1-.811,1.085,4.68,4.68,0,0,1-1.511.983A5.82,5.82,0,0,1,321.8,29.215Zm.365-2.149a4.775,4.775,0,0,0,2.4-.558,3.842,3.842,0,0,0,1.48-1.44,3.7,3.7,0,0,0,.5-1.855v-2.19a1.4,1.4,0,0,1-.664.329,10.07,10.07,0,0,1-1.176.253q-.664.106-1.288.182t-1.009.127a9.29,9.29,0,0,0-1.739.39,3.03,3.03,0,0,0-1.3.8,2.046,2.046,0,0,0-.492,1.445,2.129,2.129,0,0,0,.928,1.881A4.09,4.09,0,0,0,322.169,27.065Zm10.438,1.784V13.278H335V28.85Zm1.217-18.167a1.684,1.684,0,0,1-1.2-.476,1.559,1.559,0,0,1,0-2.291,1.753,1.753,0,0,1,2.4,0,1.559,1.559,0,0,1,0,2.291A1.684,1.684,0,0,1,333.823,10.682Zm7.234,8.8V28.85h-2.393V13.278h2.311v2.433h.2a4.48,4.48,0,0,1,1.663-1.911,5.2,5.2,0,0,1,2.879-.725,5.714,5.714,0,0,1,2.768.644,4.405,4.405,0,0,1,1.845,1.947,7.263,7.263,0,0,1,.659,3.29V28.85H348.6V19.117a4.055,4.055,0,0,0-.953-2.864,3.389,3.389,0,0,0-2.616-1.029,4.146,4.146,0,0,0-2.043.5,3.545,3.545,0,0,0-1.414,1.45A4.787,4.787,0,0,0,341.058,19.482Zm13.6,9.368V13.278h2.311v2.433h.2a3.94,3.94,0,0,1,1.571-1.941,4.73,4.73,0,0,1,2.605-.694,4.493,4.493,0,0,1,2.57.694,4.622,4.622,0,0,1,1.607,1.941h.162a4.568,4.568,0,0,1,1.794-1.921,5.494,5.494,0,0,1,2.869-.715,4.673,4.673,0,0,1,3.417,1.3,5.458,5.458,0,0,1,1.328,4.05V28.85H372.7V18.428a2.947,2.947,0,0,0-.943-2.464,3.49,3.49,0,0,0-2.22-.74,3.271,3.271,0,0,0-2.545.988,3.565,3.565,0,0,0-.9,2.5V28.85h-2.433V18.184a2.817,2.817,0,0,0-.862-2.144,3.1,3.1,0,0,0-2.22-.816,3.254,3.254,0,0,0-1.739.5,3.707,3.707,0,0,0-1.3,1.374,4.065,4.065,0,0,0-.492,2.023V28.85Zm30.633.324a7.269,7.269,0,0,1-3.878-1,6.585,6.585,0,0,1-2.5-2.8,9.463,9.463,0,0,1-.877-4.192,9.662,9.662,0,0,1,.877-4.222,6.872,6.872,0,0,1,2.453-2.859,6.589,6.589,0,0,1,3.685-1.029,7.382,7.382,0,0,1,2.4.406,5.986,5.986,0,0,1,2.159,1.313,6.353,6.353,0,0,1,1.551,2.4,10.2,10.2,0,0,1,.578,3.67v1.014h-12V19.806h9.57a5.147,5.147,0,0,0-.522-2.352,4.019,4.019,0,0,0-1.48-1.632,4.171,4.171,0,0,0-2.256-.6,4.293,4.293,0,0,0-2.469.7,4.692,4.692,0,0,0-1.6,1.83,5.361,5.361,0,0,0-.558,2.413V21.55a6.6,6.6,0,0,0,.613,2.986,4.318,4.318,0,0,0,1.708,1.855,4.989,4.989,0,0,0,2.545.634A5.133,5.133,0,0,0,387,26.756a3.563,3.563,0,0,0,1.323-.811,3.636,3.636,0,0,0,.862-1.353l2.312.649A5.085,5.085,0,0,1,390.27,27.3a5.89,5.89,0,0,1-2.129,1.379A7.823,7.823,0,0,1,385.292,29.174Zm11.776-9.692V28.85h-2.393V13.278h2.311v2.433h.2a4.479,4.479,0,0,1,1.663-1.911,5.2,5.2,0,0,1,2.879-.725,5.714,5.714,0,0,1,2.768.644,4.405,4.405,0,0,1,1.845,1.947,7.263,7.263,0,0,1,.659,3.29V28.85h-2.393V19.117a4.055,4.055,0,0,0-.953-2.864,3.39,3.39,0,0,0-2.616-1.029,4.146,4.146,0,0,0-2.043.5,3.545,3.545,0,0,0-1.414,1.45A4.788,4.788,0,0,0,397.069,19.482Zm20.373-6.2v2.028h-8.07V13.278Zm-5.718-3.731h2.393V24.389a3.028,3.028,0,0,0,.3,1.516,1.467,1.467,0,0,0,.77.669,2.964,2.964,0,0,0,1,.167,3.778,3.778,0,0,0,.649-.046q.253-.046.406-.076l.487,2.149a4.978,4.978,0,0,1-1.784.284,4.781,4.781,0,0,1-1.982-.436,3.9,3.9,0,0,1-1.6-1.328,3.792,3.792,0,0,1-.634-2.251Z" transform="translate(-49.542 56.386)" fill="#fff"/>
        <path id="Path_5211" data-name="Path 5211" d="M9.786-13.527a2.385,2.385,0,0,1-1.749-.727A2.385,2.385,0,0,1,7.31-16a2.356,2.356,0,0,1,.727-1.733,2.393,2.393,0,0,1,1.749-.722,2.409,2.409,0,0,1,1.733.722A2.332,2.332,0,0,1,12.263-16a2.328,2.328,0,0,1-.346,1.243,2.652,2.652,0,0,1-.9.9A2.336,2.336,0,0,1,9.786-13.527Z" transform="translate(363.348 99.418)" fill="url(#linear-gradient)"/>
      </g>
    </g>
  </g>
</svg>
