<svg xmlns="http://www.w3.org/2000/svg" xmlns:xlink="http://www.w3.org/1999/xlink" width="32.271" height="22.218" viewBox="0 0 32.271 22.218">
  <defs>
    <linearGradient id="linear-gradient" x1="1" x2="0.5" y2="1" gradientUnits="objectBoundingBox">
      <stop offset="0" stop-color="#ff9d00"/>
      <stop offset="1" stop-color="#ff0076"/>
    </linearGradient>
  </defs>
  <g id="Group_93" data-name="Group 93" transform="translate(-95.984 -63.5)">
    <g id="Group_92" data-name="Group 92" transform="translate(95.984 63.5)">
      <g id="Group_46" data-name="Group 46" transform="translate(0)">
        <path id="Path_133" data-name="Path 133" d="M11.175-81.343v3.27H1.96v-3.27ZM4.07-65.645V-82.477a5.685,5.685,0,0,1,.637-2.831,4.114,4.114,0,0,1,1.745-1.686,5.487,5.487,0,0,1,2.518-.562,9.2,9.2,0,0,1,1.745.153,11.56,11.56,0,0,1,1.181.276l-.739,3.27a5.025,5.025,0,0,0-.6-.153,3.655,3.655,0,0,0-.724-.072,1.559,1.559,0,0,0-1.273.445A1.924,1.924,0,0,0,8.2-82.4v16.751Zm15.228.307a7.607,7.607,0,0,1-3.961-.986,6.537,6.537,0,0,1-2.552-2.8,9.621,9.621,0,0,1-.894-4.3,9.57,9.57,0,0,1,.894-4.252,6.815,6.815,0,0,1,2.522-2.851,7.043,7.043,0,0,1,3.825-1.022,7.556,7.556,0,0,1,2.756.5,6.18,6.18,0,0,1,2.236,1.487,6.828,6.828,0,0,1,1.492,2.489,10.4,10.4,0,0,1,.535,3.5v1.2H13.543v-2.7h8.709a3.473,3.473,0,0,0-.389-1.666,2.908,2.908,0,0,0-1.074-1.14A3.013,3.013,0,0,0,19.2-78.3a3.068,3.068,0,0,0-1.667.455A3.192,3.192,0,0,0,16.4-76.626a3.6,3.6,0,0,0-.418,1.691v2.565a4.555,4.555,0,0,0,.413,2.013,3.051,3.051,0,0,0,1.171,1.308,3.4,3.4,0,0,0,1.8.46,3.741,3.741,0,0,0,1.264-.2,2.6,2.6,0,0,0,.982-.613,2.682,2.682,0,0,0,.622-1l3.83.266a5.6,5.6,0,0,1-1.191,2.529,5.986,5.986,0,0,1-2.313,1.676A8.316,8.316,0,0,1,19.3-65.338Z" transform="translate(-1.96 87.557)" fill="#fff"/>
      </g>
      <path id="Path_134" data-name="Path 134" d="M10.209-12.685a2.792,2.792,0,0,1-2.047-.852,2.792,2.792,0,0,1-.852-2.047,2.758,2.758,0,0,1,.852-2.029,2.8,2.8,0,0,1,2.047-.846,2.82,2.82,0,0,1,2.029.846,2.73,2.73,0,0,1,.87,2.029,2.725,2.725,0,0,1-.4,1.456,3.1,3.1,0,0,1-1.057,1.051A2.735,2.735,0,0,1,10.209-12.685Z" transform="translate(19.163 34.855)" fill="url(#linear-gradient)"/>
    </g>
  </g>
</svg>
