<svg xmlns="http://www.w3.org/2000/svg" xmlns:xlink="http://www.w3.org/1999/xlink" width="83.324" height="126.64" viewBox="0 0 83.324 126.64">
  <defs>
    <linearGradient id="linear-gradient" x1="0.948" x2="0.201" y2="1" gradientUnits="objectBoundingBox">
      <stop offset="0" stop-color="#ff9d00"/>
      <stop offset="1" stop-color="#ff0076"/>
    </linearGradient>
  </defs>
  <path id="Brnded_Elements_BlackSet-15" d="M245.648,626.681a65.161,65.161,0,0,1-6.694,5.02,74.551,74.551,0,0,1-14.844,7.49,86.148,86.148,0,0,1-25.439,4.951c-.806-.657-1.615-1.276-2.384-1.865a70.385,70.385,0,0,0-13.245-8.056,31.769,31.769,0,0,0-10.3-2.858A4.653,4.653,0,0,0,170,631.9a2.558,2.558,0,0,0-1.132,2.041,6.763,6.763,0,0,0,.974,3.793,14.371,14.371,0,0,0,3.253,3.655c5.177,4.268,12.721,6.058,20.8,6.16q1.145.014,2.3-.014A23.025,23.025,0,0,1,199.8,651a8.746,8.746,0,0,1,1.984,4.169,1.691,1.691,0,0,1-.968,1.922,9.363,9.363,0,0,1-3.89.722c-10.046.189-20.813-2.887-30.708-7.819A84.486,84.486,0,0,1,140.55,630.6a.908.908,0,0,0-1.393,1.166,85.906,85.906,0,0,0,25.67,20.9c10.248,5.522,21.534,8.961,32.116,9.049,2.3.009,5.076-.431,6.814-1.763a5.37,5.37,0,0,0,2.052-5.349,12.757,12.757,0,0,0-2.758-6.178c-.341-.437-.707-.861-1.089-1.271a89.293,89.293,0,0,0,23.07-5.6,76.544,76.544,0,0,0,15.064-8.179,64.583,64.583,0,0,0,8.544-7.128c-1.089,1.718-2.14,3.454-3.111,5.243-.576,1.059-1.109,2.142-1.613,3.238s-.965,2.21-1.41,3.333c-.535,1.35-1.033,2.7-1.5,4.075-.71,2.066-1.329,4.126-1.961,6.217a.908.908,0,0,0,1.674.7c1.159-2.107,2.376-4.138,3.544-6.24,1.156-2.082,2.308-4.151,3.415-6.259.529-1.007,1.031-2.028,1.518-3.055.732-1.546,1.422-3.1,2.124-4.665,1.517-3.368,3.007-6.713,4.63-10.024q.511-.612.966-1.246a.744.744,0,0,0-.076-1.048l-.019-.015a.743.743,0,0,0-1.32-.11q-.477.643-.95,1.284a28.869,28.869,0,0,1-4.216,2.728,47.051,47.051,0,0,1-6.1,2.69c-1.246.462-2.521.869-3.792,1.3s-2.545.86-3.811,1.268c-1.573.506-3.116.994-4.635,1.424a58.139,58.139,0,0,1-7.139,1.667.908.908,0,1,0,.073,1.815,44.8,44.8,0,0,0,6.426-.017q2.088-.154,4.257-.536c1.164-.2,2.333-.455,3.5-.776a31.977,31.977,0,0,0,3.4-1.137c1.074-.429,2.124-.909,3.145-1.428Zm-54.156,17.311c-6.216-.515-11.918-2.127-15.9-5.563a11.575,11.575,0,0,1-2.038-2.19,5.2,5.2,0,0,1-.445-.779,29.426,29.426,0,0,1,8.217,2.566A64.213,64.213,0,0,1,191.492,643.993Z" transform="translate(574.29 -341.266) rotate(70)" fill="url(#linear-gradient)"/>
</svg>
