<svg xmlns="http://www.w3.org/2000/svg" xmlns:xlink="http://www.w3.org/1999/xlink" width="102.477" height="100.04" viewBox="0 0 102.477 100.04">
  <defs>
    <linearGradient id="linear-gradient" x1="0.5" x2="0.5" y2="1" gradientUnits="objectBoundingBox">
      <stop offset="0" stop-color="#ff9d00"/>
      <stop offset="1" stop-color="#ff0076"/>
    </linearGradient>
  </defs>
  <path id="Union_4" data-name="Union 4" d="M-4763.377-3379.959a6.966,6.966,0,0,1-6.9-5.413c-.141-.655-.486-.853-1.059-1.071a25.108,25.108,0,0,1-4.677-2.036c-2.1-1.345-2.225-3.157-.653-5.117.2-.255.423-.5.678-.8-1.119-.869-2.2-1.877-1.912-3.337a18.741,18.741,0,0,1,1.465-3.556,23,23,0,0,1-1.427-3.221,3.825,3.825,0,0,1,2.382-4.649,1.389,1.389,0,0,0,.975-1.877c-.681-3.01-2.548-5.229-4.738-7.243-1.918-1.764-3.887-3.474-5.78-5.264-3.183-3.008-3.956-6.884-3.778-11.031a20.565,20.565,0,0,1,1.3-7.152,18.942,18.942,0,0,1,9.958-9.995,29.719,29.719,0,0,1,25.325-.469c9.892,4.27,11.451,15.906,8.327,21.969a35.135,35.135,0,0,1-3.242,4.823c-2.19,2.927-4.551,5.731-6.662,8.712a12.511,12.511,0,0,0-2.332,7.718,1.256,1.256,0,0,0,1.057,1.37,9.907,9.907,0,0,1,2.587,1.193c2.126,1.4,2.249,2.615.559,4.418,2.493,2.508,1.957,4.549.174,6.288a6.27,6.27,0,0,1,.731,5.084,5.427,5.427,0,0,1-4.149,4.316,1.232,1.232,0,0,0-.978,1.043c-.718,2.926-3.966,5.293-7.208,5.293Zm-.407-1.771a5.44,5.44,0,0,0,5.583-3.942h-10.816A5.8,5.8,0,0,0-4763.785-3381.729Zm-9.615-7.023a14.367,14.367,0,0,0,2.555.75,35.338,35.338,0,0,0,12.126.107,10.921,10.921,0,0,0,5.2-1.757,2.61,2.61,0,0,0,1.016-3.217,15.681,15.681,0,0,0-.854-1.717,37.587,37.587,0,0,1-21.5,1.033C-4776.38-3391.413-4775.933-3389.79-4773.4-3388.753Zm-1.652-11.324a2.6,2.6,0,0,0,.707,4.407,5.556,5.556,0,0,0,1.4.491c2.238.377,4.484.71,6.221.981,2.555-.225,4.571-.324,6.563-.6a15.207,15.207,0,0,0,6.886-2.283c.6-.419,1.156-.978.859-1.717a12.393,12.393,0,0,0-1.388-2.223c-.043-.062-.316-.006-.463.046a28.732,28.732,0,0,1-8.764,1.4c-3.823.127-7.658.408-11.419-.635a.537.537,0,0,0-.142-.017A.715.715,0,0,0-4775.052-3400.077Zm.684-7.27a2.164,2.164,0,0,0-1.592,1.949,3.287,3.287,0,0,0,3.117,3.517c2.2.226,4.4.343,6.08.467,2.982-.174,5.444-.163,7.854-.51a26.921,26.921,0,0,0,4.886-1.509c.326-.114.552-.512.823-.78-.277-.248-.516-.629-.839-.722a39.828,39.828,0,0,0-5.518-1.434c-3.955-.549-7.936-.922-11.914-1.279-.182-.016-.366-.024-.55-.024A9.811,9.811,0,0,0-4774.368-3407.347Zm20.334-28.077a4.072,4.072,0,0,1-1.243,1.907,14.531,14.531,0,0,1-3.336,1.4c-.623.2-1.033.434-1.2,1.1-.281,1.149-.667,2.272-.936,3.423a84.918,84.918,0,0,0-1.789,16.665c-.023.712,0,1.425,0,2.21l4.414.4a7.461,7.461,0,0,0,.092-.853,12.125,12.125,0,0,1,1.609-6.441c1.511-2.537,3.174-5,4.931-7.374,2.119-2.865,4.314-5.665,5.7-8.985a14.477,14.477,0,0,0,1.171-8.573c-.862-4.288-3.756-7.006-7.363-9.063a24.867,24.867,0,0,0-14.4-3.089c-7.613.54-13.681,3.825-17.828,10.246-3.762,5.824-3.772,12.7,1.2,18.126a54.764,54.764,0,0,0,4.693,4.245c3.031,2.617,5.453,5.56,5.622,9.806.009.221.261.6.436.619,1.236.156,2.481.238,3.583.331-.353-5.528-1.709-10.671-5.092-15.311-.116.871-.182,1.641-.337,2.393-.056.273-.327.5-.5.752-.161-.242-.459-.485-.459-.727a14.348,14.348,0,0,1,.192-3.323,2.99,2.99,0,0,0-.307-2.223,11.637,11.637,0,0,1-.974-2.659c-.079-.364.351-.835.548-1.257a3.466,3.466,0,0,1,1.126.6,14.948,14.948,0,0,1,1.142,1.748,24.354,24.354,0,0,1,4.408-2.424,57.364,57.364,0,0,1,7.163-1.462,1.193,1.193,0,0,0,1.034-.859,39.616,39.616,0,0,1,1.8-4.166,32.475,32.475,0,0,1,2.685-4.108,1.586,1.586,0,0,1,2.209-.427c.518.365.588,1.172.06,1.278-1.388.278-1.738,1.445-2.26,2.414-.828,1.536-1.512,3.148-2.256,4.728l.33.271c.847-.7,1.668-1.438,2.554-2.087a4.827,4.827,0,0,1,1.27-.468C-4754.224-3436.229-4753.906-3435.736-4754.034-3435.424Zm-14.315,5.375a16.661,16.661,0,0,0-3.517,2.119.937.937,0,0,0-.282,1.427c.5.848.86,1.777,1.347,2.634,2.583,4.556,4.441,9.313,4.192,14.709.26.05.513.118.769.141.424.039.85.05,1.32.075.168-3.892.141-7.688.55-11.436.405-3.721,1.25-7.394,1.926-11.226C-4764.086-3431.12-4766.276-3430.755-4768.349-3430.049ZM-4794-3409.3a2.038,2.038,0,0,1,.429-.655q3.062-3.918,6.141-7.822a1.092,1.092,0,0,1,.7-.4c.145-.007.307.338.442.5a7.19,7.19,0,0,1-.385.811c-1.621,2.468-3.229,4.944-4.9,7.381a4.477,4.477,0,0,1-1.4,1.222,1.522,1.522,0,0,1-.783.117c-.129,0-.259,0-.38.006A7.449,7.449,0,0,1-4794-3409.3Zm61.711-5.6a7.092,7.092,0,0,1-1.525-.691c-2.266-1.349-4.53-2.7-6.762-4.1a13.829,13.829,0,0,1-1.64-1.412l.2-.425a7.44,7.44,0,0,1,1.736.206,16.869,16.869,0,0,1,2.2,1.109c2.176,1.171,4.352,2.344,6.517,3.535.594.327,1.448.662,1.109,1.5a.764.764,0,0,1-.769.531A3.916,3.916,0,0,1-4732.289-3414.9Zm-65.77-19.346a37.633,37.633,0,0,1-4.233-.221,53.681,53.681,0,0,0-10.272.072c-.489.03-1.4-.162-1.424-.343-.121-.9.763-.753,1.26-.826,2.605-.384,5.222-.69,7.422-.97,2.051.116,3.668.146,5.27.326a8.049,8.049,0,0,1,2.232.724.926.926,0,0,1,.453.756c-.027.2-.452.483-.7.483Zm66.267-3.7a4.575,4.575,0,0,1-.78-.154c.125-.283.179-.736.384-.818a8.821,8.821,0,0,1,2.691-.841c5.237-.271,10.479-.453,15.72-.614.412-.013.835.365,1.253.56v.791a4.291,4.291,0,0,1-1.37.569c-5.6.175-11.209.3-16.814.439-.337.008-.673.068-1.009.068Zm-53.837-19.239a10.5,10.5,0,0,1-2.148-1.184q-3.687-2.652-7.308-5.4c-.288-.219-.377-.7-.558-1.061a3.686,3.686,0,0,0,.382,0,1.4,1.4,0,0,1,.759.105q4.229,2.637,8.4,5.371a11.093,11.093,0,0,1,1.526,1.478l-.029.394a4.035,4.035,0,0,1-.9.314A.339.339,0,0,1-4785.629-3457.184Zm40.541-5.059a2.183,2.183,0,0,1,.463-.856c1.6-2.294,3.191-4.592,4.815-6.867a14.307,14.307,0,0,1,1.535-1.8,5.683,5.683,0,0,1,1.177-.686c.341.265.73.441.9.739a1,1,0,0,1-.166.866c-1.48,1.92-3.015,3.8-4.495,5.719-.966,1.256-1.827,2.594-2.829,3.819-.221.27-.84.215-1.275.31A5.407,5.407,0,0,1-4745.088-3462.243Zm-21.906-1.861c-.839,0-.593-1.006-.613-1.538-.148-3.905-.22-7.813-.3-11.72a1.324,1.324,0,0,1,.168-.85,2.272,2.272,0,0,1,1.181-.788c.236-.025.543.614.819.953l-.329.152c-.079,4.071-.136,8.142-.263,12.211-.018.563.258,1.579-.658,1.579Z" transform="translate(4814.5 3479.499)" stroke="rgba(0,0,0,0)" stroke-width="1" fill="url(#linear-gradient)"/>
</svg>
