<svg xmlns="http://www.w3.org/2000/svg" xmlns:xlink="http://www.w3.org/1999/xlink" width="76.653" height="85.19" viewBox="0 0 76.653 85.19">
  <defs>
    <linearGradient id="linear-gradient" x1="1.006" x2="0.004" y2="1" gradientUnits="objectBoundingBox">
      <stop offset="0" stop-color="#ff9d00"/>
      <stop offset="1" stop-color="#ff0076"/>
    </linearGradient>
  </defs>
  <g id="Group_6131" data-name="Group 6131" transform="translate(-848.176 -302.308)">
    <path id="Union_3" data-name="Union 3" d="M-5208.792-3371.15c-.879-1.065-1.836-2.064-2.758-3.091a3.442,3.442,0,0,1-.881-2.157q-.876-13-1.8-26c-.346-4.852-.793-9.7-1.067-14.552a13.814,13.814,0,0,0-.98-4.518c-.62-1.522-1.105-3.1-1.623-4.658-.124-.372-.12-.786-.212-1.171a.807.807,0,0,1,.578-1.044c3.658-1.565,7.283-3.209,10.966-4.709q25.315-10.315,50.657-20.563c.856-.347,1.729-.659,2.608-.943a.751.751,0,0,1,1,.542c.85,2.23,1.714,4.457,2.557,6.691a5.256,5.256,0,0,1,.262,1.082c.2,1.334.073,1.63-1.187,2.141q-8.626,3.506-17.272,6.958-15.973,6.359-31.963,12.669c-.5.2-.69.413-.618.974.111.862.107,1.739.154,2.609,2.779-.147,5.4-.281,8.028-.422l44.581-2.372c.875-.047,1.751-.1,2.627-.106a1.042,1.042,0,0,1,1.194,1.151,73.557,73.557,0,0,1,.365,7.877c-.3,4.707.345,9.356.46,14.034.115,4.7.4,9.4.558,14.1.082,2.39.071,4.782.055,7.173a2.281,2.281,0,0,1-.388,1.172c-.958,1.435-1.993,2.821-2.941,4.263a1.909,1.909,0,0,1-1.579.91c-.794.058-1.59.1-2.386.138q-24.166,1.173-48.333,2.33c-3,.142-6,.123-9,.214h-.1A1.835,1.835,0,0,1-5208.792-3371.15Zm-3.958-39.062c0,.073-.009.23,0,.386.276,5.652.608,11.3.818,16.957.216,5.786.312,11.575.481,17.363a1.05,1.05,0,0,0,.348.617c1.106,1.066,2.221,2.123,3.36,3.152a1.2,1.2,0,0,0,.8.3c3.815-.27,7.625-.631,11.442-.851q22.915-1.314,45.835-2.559c.743-.042,1.489-.056,2.227-.144a1.465,1.465,0,0,0,.842-.377c.968-1.021,1.912-2.067,2.816-3.145a1.611,1.611,0,0,0,.355-1.031c-.1-1.483-.314-2.958-.409-4.442q-.9-14.277-1.771-28.556c-.017-.284-.03-.567-.046-.868Zm.795-1.412c1.942-.1,3.76-.181,5.574-.312a1.278,1.278,0,0,0,.694-.454q2.326-2.515,4.623-5.056c.509-.562,1-1.146,1.672-1.93-2.146.113-4.1.212-6.044.323a.528.528,0,0,0-.327.181c-.737.859-1.464,1.727-2.2,2.594.786.626.981,1.25.545,1.777-.173.211-.48.463-.707.447a7.139,7.139,0,0,1-1.418-.394C-5210.289-3413.569-5211.092-3412.632-5211.954-3411.623Zm13.869-7.694a.729.729,0,0,0-.458.248c-1.915,2.27-3.817,4.55-5.821,6.945,1.831-.1,3.517-.2,5.2-.26a1.758,1.758,0,0,0,1.365-.64c1.8-2.016,3.645-4,5.47-6,.133-.146.25-.31.505-.63C-5194.03-3419.54-5196.058-3419.439-5198.085-3419.317Zm-15.409.6.335,6.4,6.066-6.731Zm23.1-.952a.941.941,0,0,0-.587.31q-2.756,3.245-5.482,6.517a.58.58,0,0,0-.06.211c1.506-.08,2.98-.2,4.455-.218a2.583,2.583,0,0,0,2.17-1.012c1.007-1.231,2.137-2.36,3.194-3.549.719-.808,1.4-1.649,2.189-2.58C-5186.542-3419.883-5188.47-3419.79-5190.4-3419.668Zm7.805-.355a1.816,1.816,0,0,0-1.119.542c-1.553,1.778-3.055,3.6-4.573,5.409-.249.3-.5.593-.862,1.032,1.605-.084,3.026-.236,4.442-.208a3.1,3.1,0,0,0,2.694-1.282c1.6-1.974,3.3-3.871,4.961-5.805C-5178.845-3420.242-5180.722-3420.171-5182.593-3420.023Zm7.327-.393a1.063,1.063,0,0,0-.659.346c-1.819,2.141-3.617,4.3-5.561,6.614,2.11-.11,4.034-.207,5.956-.32a.64.64,0,0,0,.406-.2q2.9-3.36,5.781-6.738C-5171.317-3420.625-5173.293-3420.537-5175.266-3420.416Zm7.665-.381a.864.864,0,0,0-.517.309c-1.815,2.145-3.617,4.3-5.561,6.619,1.915-.1,3.633-.161,5.346-.3a1.914,1.914,0,0,0,1.135-.538c1.8-1.912,3.563-3.865,5.334-5.806.149-.164.284-.339.52-.623C-5163.53-3421.022-5165.567-3420.923-5167.6-3420.8Zm7.592-.386c-.211.014-.438.266-.6.457-1.237,1.456-2.461,2.925-3.69,4.387-.538.64-1.081,1.278-1.75,2.069a18.691,18.691,0,0,1,2.706-.121,5.465,5.465,0,0,0,5.368-2.538c1.175-1.62,2.593-3.064,3.9-4.586C-5156-3421.414-5158-3421.321-5160.009-3421.183Zm7.621-.416a.947.947,0,0,0-.593.31c-1.819,2.144-3.621,4.3-5.568,6.624,2.059-.109,3.93-.193,5.8-.322.216-.014.449-.248.618-.431q2.728-2.952,5.435-5.926c.126-.139.223-.305.427-.588C-5148.417-3421.82-5150.4-3421.724-5152.388-3421.6Zm1.542,6.463,5.335-.279-.3-5.72Zm-60.209-5.051,9.629-.5c-.008-1.083-.016-2.067-.025-3.157Zm-2-.473c1.908-.8,3.619-1.5,5.314-2.241a1.054,1.054,0,0,0,.409-.536q1.829-4.155,3.634-8.319c.118-.27.223-.546.394-.968-2.046.783-3.9,1.489-5.752,2.212a.709.709,0,0,0-.386.351c-.361,1.023-.693,2.056-1.035,3.087l.026-.03s0,.006,0,.009l-.005,0C-5211.3-3425-5212.139-3422.917-5213.052-3420.661Zm-3.787-6.945c.913,2.177,1.79,4.272,2.737,6.532,1.323-3.033,2.589-5.937,3.918-8.985Zm15.843-6.049a2.649,2.649,0,0,0-1.888,1.835c-.9,2.711-2.012,5.352-3.108,8.2,1.891-.794,3.625-1.5,5.338-2.259a1.259,1.259,0,0,0,.518-.639c1.181-2.664,2.343-5.337,3.507-8.01.111-.254.2-.517.355-.938C-5197.948-3434.818-5199.457-3434.192-5201-3433.655Zm7.241-2.837a2.972,2.972,0,0,0-2.135,2.119c-.858,2.558-1.906,5.052-2.945,7.755,1.846-.761,3.514-1.433,5.164-2.148a1.257,1.257,0,0,0,.522-.631c1.182-2.667,2.344-5.342,3.51-8.016.09-.207.155-.426.288-.792C-5190.909-3437.589-5192.3-3436.95-5193.754-3436.491Zm6.464-2.563a2.214,2.214,0,0,0-1.5,1.515c-.937,2.647-1.987,5.254-3.066,8.065,1.774-.72,3.4-1.352,4.992-2.048a1.786,1.786,0,0,0,.853-.82c1.179-2.609,2.309-5.241,3.452-7.867.1-.232.178-.474.317-.847C-5184.006-3440.348-5185.628-3439.646-5187.291-3439.054Zm7.482-3a2.919,2.919,0,0,0-2.023,2.034c-.866,2.526-1.886,5-2.91,7.668,1.929-.775,3.68-1.459,5.408-2.194a1.369,1.369,0,0,0,.571-.7c1.152-2.6,2.281-5.2,3.416-7.8.108-.25.194-.511.346-.913C-5176.71-3443.275-5178.232-3442.587-5179.809-3442.058Zm5.989-2.357a.853.853,0,0,0-.355.469q-1.51,3.9-3,7.8c-.088.23-.155.469-.275.844,1.86-.746,3.578-1.429,5.287-2.135a.886.886,0,0,0,.409-.444c1.278-2.917,2.541-5.838,3.888-8.948C-5169.957-3445.986-5171.894-3445.215-5173.82-3444.416Zm8.31-3.389a2.776,2.776,0,0,0-1.936,1.916c-.871,2.554-1.906,5.05-2.945,7.751,1.753-.7,3.33-1.308,4.881-1.978a1.668,1.668,0,0,0,.792-.777c1.175-2.61,2.307-5.24,3.448-7.864.1-.227.174-.464.317-.847C-5162.569-3448.958-5164.018-3448.316-5165.51-3447.8Zm5.789-2.285a.72.72,0,0,0-.355.368c-1.1,2.869-2.188,5.743-3.345,8.79,1.867-.753,3.587-1.433,5.292-2.149a1.12,1.12,0,0,0,.478-.571q1.815-4.112,3.6-8.235c.059-.135.091-.28.178-.553C-5155.906-3451.626-5157.818-3450.867-5159.722-3450.09Zm3.375,6.328,5.4-2.208-2.4-5.557C-5154.356-3448.914-5155.319-3446.426-5156.347-3443.762Zm-44.469,47.87c-.1-2.224-.1-4.453-.144-6.679-.012-.568.373-.624.793-.66,3.308-.285,6.609-.651,9.923-.849,10.764-.643,21.533-1.226,32.3-1.827,1.481-.083,1.735.134,1.841,1.587.14,1.908.253,3.818.372,5.726.089,1.407-.217,1.785-1.611,1.858-4.3.228-8.6.43-12.893.647-2.786.14-5.57.291-8.355.436l-.01-.2q-10.463.548-20.928,1.094c-.2.01-.371.018-.513.018C-5200.716-3394.745-5200.775-3394.925-5200.816-3395.892Zm.751-6.181c.193,1.831.4,3.8.6,5.72l42.352-2.219c.023-1.024.048-1.921.064-2.818s.016-1.785.023-2.643Zm.3-13.429a1.158,1.158,0,0,1,1.019-1.2,1.059,1.059,0,0,1,1.255.922,1.132,1.132,0,0,1-1.035,1.269c-.033,0-.065,0-.1,0A1.163,1.163,0,0,1-5199.769-3415.5Zm-10.632-11.052c-.03-.178-.032-.361-.045-.541a4.107,4.107,0,0,1,1.118-.833,1.142,1.142,0,0,1,1.492.918,1.276,1.276,0,0,1-1.047,1.522,1.215,1.215,0,0,1-.23.022A1.321,1.321,0,0,1-5210.4-3426.554Zm1.356-.733a2.24,2.24,0,0,0-.588.512c.174.157.35.436.524.438s.369-.266.657-.5c-.256-.2-.467-.456-.573-.456A.057.057,0,0,0-5209.044-3427.287Z" transform="translate(6066.827 3757.431)" stroke="rgba(0,0,0,0)" stroke-width="1" fill="url(#linear-gradient)"/>
  </g>
</svg>
