<svg xmlns="http://www.w3.org/2000/svg" xmlns:xlink="http://www.w3.org/1999/xlink" width="178.943" height="29.206" viewBox="0 0 178.943 29.206">
  <defs>
    <linearGradient id="linear-gradient" x1="0.5" x2="0.5" y2="1" gradientUnits="objectBoundingBox">
      <stop offset="0" stop-color="#ff9d00"/>
      <stop offset="1" stop-color="#ff0076"/>
    </linearGradient>
  </defs>
  <path id="Brnded_Elements_BlackSet-14" d="M2.777,16.771c10.3-1.285,20.64-2.331,31.057-3.311,6.918-.651,13.842-1.247,20.792-1.83,7.278-.612,14.57-1.176,21.868-1.757q7.292-.581,14.582-1.2,17.045-1.435,34.1-2.795,25.769-2.018,51.393-3.885c.985-.047,1.715-.53,1.632-1.079s-.952-.957-1.935-.91c-21.124.52-42.348.978-63.574,1.914-8.485.375-16.957.811-25.4,1.392q-8.459.581-16.858,1.372-17.543,1.675-34.764,4.1C24.148,10.393,12.843,12.321,1.6,14.42c-1.165.181-1.846.854-1.522,1.5S1.612,16.952,2.777,16.771Z" transform="matrix(0.998, 0.07, -0.07, 0.998, 1.173, 0)" fill="url(#linear-gradient)"/>
</svg>
