<svg xmlns="http://www.w3.org/2000/svg" xmlns:xlink="http://www.w3.org/1999/xlink" width="23.508" height="90.702" viewBox="0 0 23.508 90.702">
  <defs>
    <linearGradient id="linear-gradient" x1="0.5" x2="0.5" y2="1" gradientUnits="objectBoundingBox">
      <stop offset="0" stop-color="#ff9d00"/>
      <stop offset="1" stop-color="#ff0076"/>
    </linearGradient>
  </defs>
  <path id="Brnded_Elements_BlackSet-27" d="M713.629,688.725c-.377-.72-3.495-1.143-4.052-.448a20.974,20.974,0,0,0-1.538,1.622,3.487,3.487,0,0,0-.375.869,2.493,2.493,0,0,0-.078.88c.076.689,1.01,1.651,1.282,2.26.492,1.111,4.384.557,5.023-.521a6.706,6.706,0,0,0,.834-1.617,2.409,2.409,0,0,0,.083-.807,3.023,3.023,0,0,0-.2-.817,13.876,13.876,0,0,0-.98-1.421Zm13.608-83.489c-1.871,4.683-3.7,9.052-5.371,13.4-1.178,3.07-2.272,6.062-3.294,9.052-.878,2.571-1.707,5.113-2.435,7.668-.74,2.6-1.406,5.2-1.958,7.825-1.109,5.252-1.9,10.535-2.518,16a232.366,232.366,0,0,0-1.321,24.209,1.6,1.6,0,0,0,3.189.3c1.79-10.151,4.089-19.062,6.458-27.766,1-3.683,2.05-7.29,3.026-10.937.65-2.432,1.277-4.872,1.847-7.346,1.165-5.053,2.24-10.18,3.313-15.546,1.01-5.053,1.844-10.244,2.834-15.78a1.958,1.958,0,1,0-3.766-1.075Z" transform="translate(-707.574 -603.813)" fill="url(#linear-gradient)"/>
</svg>
