<svg xmlns="http://www.w3.org/2000/svg" xmlns:xlink="http://www.w3.org/1999/xlink" width="100.773" height="82.016" viewBox="0 0 100.773 82.016">
  <defs>
    <linearGradient id="linear-gradient" x1="0.628" y1="0.044" x2="0.222" y2="1.189" gradientUnits="objectBoundingBox">
      <stop offset="0" stop-color="#ff9d00"/>
      <stop offset="1" stop-color="#ff0076"/>
    </linearGradient>
  </defs>
  <path id="Union_1" data-name="Union 1" d="M-757.773-1303.064a21.744,21.744,0,0,1-5.024-8.871,35.385,35.385,0,0,1-1.766-12.329,28.624,28.624,0,0,1,3.829-13.873,19.074,19.074,0,0,1,9.361-8.068,51.065,51.065,0,0,1,10.958-3.036c3.367-.572,6.747-1.069,10.121-1.6.162-.025.326-.036.535-.058-.153-.633-.276-1.24-.447-1.834-.266-.923-.329-1.414,1.064-1.97.223-.089.459-.148.725-.232a1.567,1.567,0,0,1,0-1.582.957.957,0,0,0-.226-1.184,2.687,2.687,0,0,1-.418-.545.947.947,0,0,1,.143-1.142.356.356,0,0,0-.028-.069c-.809-.894-.719-1.534.337-2.174a.432.432,0,0,0,.237-.574,51.749,51.749,0,0,1-1.539-9.285,22.536,22.536,0,0,1,.341-6.87,8.589,8.589,0,0,1,1.579-3.323c.316-.4.409-.422.779-.066.424.408.816.847,1.244,1.3-1.28.9-1.426,2.253-1.611,3.554a18.689,18.689,0,0,0,.046,6.646c.442,2.023.643,4.067.9,6.109a2.015,2.015,0,0,0,.636,1.39c.11.093.133.286.2.45a6.615,6.615,0,0,1,1.021.156,1.837,1.837,0,0,1,.751.429c.342.344.172.727-.056,1.069.237.21.573.373.652.618.068.212-.156.515-.294.9a1.314,1.314,0,0,1,.12,1.153.274.274,0,0,0,.1.218,1.523,1.523,0,0,1,.47,1.6.986.986,0,0,0-.011.125c.4,0,.78-.005,1.161,0,.707.012.837.119,1,.79s.327,1.329.5,2.041c.959-.305,1.885-.6,2.808-.894a103.641,103.641,0,0,1,12.005-3.349,35.327,35.327,0,0,1,7.66-.717,18.335,18.335,0,0,1,8.574,2.455,27.129,27.129,0,0,1,9.337,8.985,35.425,35.425,0,0,1,5.356,13.824,25.09,25.09,0,0,1,.222,7.713,12.763,12.763,0,0,1-2.093,5.76,8.964,8.964,0,0,1-6.421,3.791,19.432,19.432,0,0,1-8.976-1.125,54.884,54.884,0,0,1-7.965-3.736,65.739,65.739,0,0,0-7.747-3.752,22.8,22.8,0,0,0-10.137-1.405,1.587,1.587,0,0,0-.449.174c-.046.02-.082.072-.129.081-.753.149-1.507.293-2.26.438a3.025,3.025,0,0,0-.588.122,23,23,0,0,0-7.152,4.557,47.571,47.571,0,0,0-5.808,7.111,67.814,67.814,0,0,1-5.364,6.982,20.375,20.375,0,0,1-7.826,5.54,10.1,10.1,0,0,1-3.544.67A9.62,9.62,0,0,1-757.773-1303.064Zm55.18-53.558a79.1,79.1,0,0,0-11.689,2.543,17.945,17.945,0,0,0-2.683.816,29.089,29.089,0,0,1-7.176,2.252c-2.027.365-4.069.648-6.1,1-2.378.413-4.75.856-7.122,1.3a73.456,73.456,0,0,0-12.239,3.192,19.92,19.92,0,0,0-5.944,3.247,19.686,19.686,0,0,0-5.872,8.543,30.659,30.659,0,0,0-1.812,10.289c.062,1,.1,2.007.191,3.006a33.763,33.763,0,0,0,2.588,10.362,17.334,17.334,0,0,0,4.475,6.414,7.332,7.332,0,0,0,7.245,1.622,15.3,15.3,0,0,0,5.313-2.939,29.882,29.882,0,0,0,5.226-5.737c1.661-2.28,3.262-4.6,4.951-6.863a27.006,27.006,0,0,1,8.839-7.876,17.386,17.386,0,0,1,7.279-2.168,25.014,25.014,0,0,1,11.409,2.105c2.776,1.19,5.4,2.668,8.05,4.094a39.995,39.995,0,0,0,7.44,3.3,16.452,16.452,0,0,0,7.337.707,7.193,7.193,0,0,0,5.549-3.856,14.615,14.615,0,0,0,1.519-6.369,28.707,28.707,0,0,0-1.067-8.563,31.428,31.428,0,0,0-8.868-15.317,19.847,19.847,0,0,0-8.652-4.869,16.905,16.905,0,0,0-4.3-.514A30.86,30.86,0,0,0-702.593-1356.622Zm-20.3,1.688c-1.059.192-2.114.406-3.171.61-.906.174-1.82.311-2.715.53-.647.158-.73.365-.608,1.006.095.5.214.995.28,1.5.038.286.168.316.41.282a48.815,48.815,0,0,0,6.884-1.426.437.437,0,0,0,.361-.534c-.129-.671-.3-1.335-.463-2.039A9.375,9.375,0,0,0-722.9-1354.934Zm-1.6-2.16c-.95.251-1.913.453-2.87.676a.529.529,0,0,0-.211.064,1.169,1.169,0,0,0-.178,1.142.373.373,0,0,0,.308.116q1.492-.273,2.978-.577a.789.789,0,0,0,.711-.9c0-.377-.173-.558-.472-.558A1.05,1.05,0,0,0-724.5-1357.094Zm-.042-1.635c-.494.018-.987.048-1.48.086-.216.017-.431.06-.646.091l-1.318.192a1.925,1.925,0,0,1,.544,1.661c.578-.18,1.076-.335,1.574-.492.941-.3.946-.294,1.461-1.03a.658.658,0,0,0,.07-.389c0-.044-.13-.119-.2-.119Zm-2.789-.936-.467.759c1.17-.087,2.919-.425,3.216-.927a1.87,1.87,0,0,0-.87-.207A15.644,15.644,0,0,0-727.329-1359.665Zm-.72-1.161a2.566,2.566,0,0,0-.44.435,6.212,6.212,0,0,0,.567.418c.069.041.2,0,.294-.025.574-.137,1.14-.314,1.721-.411.5-.083.721-.465,1.12-.764a2.183,2.183,0,0,0-.317-.1,7.129,7.129,0,0,0-.925-.066A3.807,3.807,0,0,0-728.049-1360.826Zm.243-19.8a9.182,9.182,0,0,0-1.44,4.493,33.881,33.881,0,0,0,.294,7.608c.279,1.985.74,3.945,1.123,5.916.035.18.089.357.138.548l.823-.169a4.006,4.006,0,0,1-.759-2.224c-.131-1.085-.191-2.179-.337-3.261-.133-.981-.448-1.948-.493-2.929a46.428,46.428,0,0,1,.015-5.177,8.211,8.211,0,0,1,1.523-4.823l-.49-.518C-727.567-1380.946-727.693-1380.788-727.806-1380.622Zm-10.522,67.867a12.4,12.4,0,0,0,1.16-6.819,2.4,2.4,0,0,1,.033-.337l.146,0a1.824,1.824,0,0,1,.087.3,14.124,14.124,0,0,1-.5,5.729,8.444,8.444,0,0,1-.6,1.315c-.043.085-.193.116-.294.173C-738.309-1312.515-738.376-1312.667-738.327-1312.754Zm-12.749-1.79a16.772,16.772,0,0,1-5.217-2.89,8.758,8.758,0,0,1-3.026-5.549c-.154-.937-.195-1.892-.287-2.839a11.285,11.285,0,0,1,2.946-7.992,11.939,11.939,0,0,1,7.471-3.743,9.579,9.579,0,0,1,4.58.2,11.044,11.044,0,0,1,7.413,7.614,11.951,11.951,0,0,1,.544,4.666,14.785,14.785,0,0,1-1.279,3.94c-1.513,3.67-4.5,5.644-8.108,6.833a6.444,6.444,0,0,1-2.027.318A9.117,9.117,0,0,1-751.076-1314.544Zm3.615-21.248c-.307.019-.615.034-.922.059-.192.016-.383.043-.573.071a9.764,9.764,0,0,0-7.7,5.08,10.884,10.884,0,0,0-1.041,6.931,6.831,6.831,0,0,0,2.529,4.555,16.588,16.588,0,0,0,4.685,2.6,7.115,7.115,0,0,0,4.651.04,11.892,11.892,0,0,0,4.35-2.606,5.417,5.417,0,0,0,1.393-1.805c.278-.615.559-1.228.827-1.847a8,8,0,0,0,.615-4.325,9.791,9.791,0,0,0-4.127-7.159,7.729,7.729,0,0,0-4.462-1.6Q-747.349-1335.8-747.461-1335.792Zm8.173,15.121a7.313,7.313,0,0,1-1.741,2.375c1.292-.638,2.549-3.56,2.945-5.047C-738.474-1322.473-738.87-1321.567-739.288-1320.671Zm-11.334-15.662a10.4,10.4,0,0,0-7.149,5.783,12.411,12.411,0,0,0-.768,7.835,6.867,6.867,0,0,0,2.067,3.761c.053.05.118.086.265.191a9.075,9.075,0,0,1-2.1-4.43,13.429,13.429,0,0,1-.116-4.143,10.718,10.718,0,0,1,.712-2.872,10.92,10.92,0,0,1,14.188-5.557l.062-.1a17.633,17.633,0,0,0-1.94-.7,8.638,8.638,0,0,0-2.017-.232A12.4,12.4,0,0,0-750.622-1336.333Zm1.047,18.107-.315.158-.587-4.737c-.851.223-1.617.422-2.382.623-.842.222-1.682.451-2.526.669a.539.539,0,0,1-.751-.385c-.1-.323-.124-.671-.2-1.005-.121-.554-.232-1.112-.392-1.655-.15-.511-.382-1-.531-1.509s.053-.8.618-.916c1.068-.223,2.138-.434,3.2-.657.575-.12,1.147-.257,1.772-.4-.291-1.1-.565-2.141-.843-3.184-.069-.257-.142-.514-.225-.767a.452.452,0,0,1,.289-.618,3.2,3.2,0,0,1,.926-.224,5.8,5.8,0,0,0,2.119-.507,7.609,7.609,0,0,1,1.161-.4c.681-.187.912-.033,1.055.645q.395,1.865.8,3.73c.024.11.055.219.107.421,1.013-.219,2.013-.424,3.007-.656.336-.078.655-.224.983-.333a.689.689,0,0,1,1,.5q.645,1.9,1.3,3.79c.129.375.041.512-.515.783l.158.308-5.036.647c.121.727.2,1.4.354,2.066a17.612,17.612,0,0,0,.545,1.786c.2.572.069.86-.5,1.046q-1.9.619-3.8,1.249a.881.881,0,0,1-.269.055C-749.254-1317.7-749.379-1317.847-749.575-1318.226Zm13.966.21a.384.384,0,0,1-.079-.211q-.115-1.347-.217-2.694c0-.031.029-.065.1-.2.131.182.294.309.315.455.124.854.221,1.712.308,2.57.01.1-.1.208-.15.312A2.28,2.28,0,0,1-735.609-1318.016Zm1.452-4.984c.511.367.808,2.99.467,3.462h-.116Zm40.315.762c-.283-.749-.526-1.513-.787-2.27-.1-.288-.216-.572-.3-.864-.024-.083.035-.19.056-.285.069.061.17.109.2.185.155.376.282.764.435,1.141.345.848.7,1.691,1.05,2.537.084.2.17.4.255.607A1.716,1.716,0,0,1-693.842-1322.237Zm-1.819.338a4.865,4.865,0,0,1-.744-.646,6.952,6.952,0,0,1-1.2-2.495c-.146-.486-.257-.983-.373-1.477a1.479,1.479,0,0,1,0-.33l.119-.019c.052.133.1.265.155.4.327.853.614,1.723.995,2.552a9.664,9.664,0,0,0,.9,1.362c.108.157.239.3.342.458.032.049.008.135.009.2a.613.613,0,0,0-.071,0c-.023,0-.047,0-.068,0A.107.107,0,0,1-695.661-1321.9Zm23.341-.135c-.241-.108-.23-.3-.154-.516a9.37,9.37,0,0,0,.509-1.553c.159-.986.228-1.987.325-2.983.037-.379.036-.761.079-1.139.011-.1.12-.192.183-.287.073.1.2.192.211.3.069.784.114,1.569.166,2.354a9.961,9.961,0,0,1-.71,3.381c-.031.07-.06.14-.091.21-.076.169-.184.281-.339.281A.439.439,0,0,1-672.32-1322.034Zm-59.067-2.5v2.417C-731.8-1322.607-731.837-1324.261-731.388-1324.536Zm30.884-3.409c.6,1.854,1.947,3.371,2.481,5.353C-698.525-1322.81-700.5-1327.121-700.5-1327.944Zm-.562,3.641a4.788,4.788,0,0,1-.79-1.1,16.048,16.048,0,0,1-.566-1.889.935.935,0,0,1,0-.245l.082-.022a.774.774,0,0,1,.089.155,9.792,9.792,0,0,0,1.473,2.824,1.2,1.2,0,0,1,.1.4C-700.809-1324.222-700.995-1324.217-701.066-1324.3Zm-65.628-.018c-.355-.011-.3-.4-.281-.648.108-1.776.269-3.55.34-5.328a8.929,8.929,0,0,1,1.368-4.234,18.79,18.79,0,0,0,.863-1.907c.03-.066.069-.128.1-.192l.115.021a1.714,1.714,0,0,1-.042.418,10.337,10.337,0,0,1-.711,1.846,10.278,10.278,0,0,0-1.258,5.126c-.044,1.423-.11,2.845-.183,4.267-.012.24.054.632-.3.632Zm96.855-.308a9.344,9.344,0,0,1,.044-1.288c.01-.1.163-.181.251-.271.093.1.236.187.269.3a2.923,2.923,0,0,1,.049.6h-.013a2.678,2.678,0,0,1-.014.643.473.473,0,0,1-.312.286h-.009A.42.42,0,0,1-669.839-1324.629Zm-59.031-1.6.17-.015c.222.268.047.572.051.859l-.153.013Zm-39.814-2.459a1.154,1.154,0,0,1-.193-.71c.128-.916.31-1.826.473-2.737a1.128,1.128,0,0,1,.081-.331,1.377,1.377,0,0,1,.232-.256c.068.092.172.176.2.278a2.042,2.042,0,0,1,.008.454l.033,0c-.092.641-.209,1.279-.268,1.923-.033.36.041.728.04,1.092a1.914,1.914,0,0,1-.108.446C-768.359-1328.58-768.613-1328.579-768.684-1328.692Zm71.485-1.384a2.2,2.2,0,0,1-1.456-2.464,3.085,3.085,0,0,1,1.223-2.562,7.209,7.209,0,0,1,2.287-.939,2.747,2.747,0,0,1,3.38,2.526,5.028,5.028,0,0,1-.038,1.4c-.293,1.6-1.552,2.5-3.4,2.568A15.6,15.6,0,0,1-697.2-1330.075Zm-.615-3.322c-.021.432-.074.866-.055,1.3a1.257,1.257,0,0,0,.748,1.124,4.067,4.067,0,0,0,3.283.19,1.405,1.405,0,0,0,.874-.9c-.5.141-.982.3-1.476.409-1.65.354-2.942-.306-3.222-2.04,0-.03-.039-.056-.06-.084Zm2.516-1.777a5.046,5.046,0,0,0-.856.338,1.576,1.576,0,0,0-.253,2.777,2.964,2.964,0,0,0,2.518.513c1.023-.269,1.212-.538,1.229-1.592a1.884,1.884,0,0,0-1.894-2.141A2.829,2.829,0,0,0-695.3-1335.174Zm-74.681,4.662a6.284,6.284,0,0,1-.012-.87h.034c.016-.29.016-.583.056-.87.013-.095.127-.176.195-.264.063.082.176.16.182.246.041.58.078,1.162.07,1.742,0,.141-.177.28-.273.42C-769.814-1330.242-769.958-1330.368-769.978-1330.512Zm44.028-2.64a1.445,1.445,0,0,1,.161-1.668,1.882,1.882,0,0,1,.9-.709,5.464,5.464,0,0,1,.87-.3c1.239-.268,2.478-.544,3.726-.763a1.471,1.471,0,0,1,1.844,1.236c.1.42.157.849.215,1.277a.756.756,0,0,1-.468.827,6.59,6.59,0,0,1-2.891.829,10.519,10.519,0,0,0-1.58.309l-.934.193A2.065,2.065,0,0,1-725.951-1333.152Zm5.493-2.623a11.674,11.674,0,0,1-1.931.323,4.282,4.282,0,0,0-2.513.873,1.061,1.061,0,0,0-.415.512c-.14.57.534,1.334,1.261,1.331.159-.033.446-.1.736-.151.517-.088,1.038-.157,1.555-.246a12.87,12.87,0,0,0,1.726-.332c1.076-.343,1.077-.391.861-1.477-.124-.625-.354-.881-.846-.881A2.314,2.314,0,0,0-720.457-1335.775Zm13.106-.354a2.671,2.671,0,0,1-.6-2.492c.024-.1.06-.195.076-.294a2.334,2.334,0,0,1,2.288-2.158c.241-.029.486-.034.66-.046a4.013,4.013,0,0,1,3.087,1.285,2.824,2.824,0,0,1-.814,4.329,3.859,3.859,0,0,1-2.012.567A3.509,3.509,0,0,1-707.352-1336.129Zm2.3.3a2.525,2.525,0,0,0,2.771-1.526,1.555,1.555,0,0,0-.042-1.293,3.071,3.071,0,0,0-4.038-1.021,1.266,1.266,0,0,0-.516,1.314,1.241,1.241,0,0,0,.966,1.073,4.77,4.77,0,0,0,1.029.1c.268.006.536,0,.8-.005.245-.005.489-.01.734-.006.095,0,.188.1.282.147-.065.1-.11.253-.2.283a6.281,6.281,0,0,1-1.213.343,4.158,4.158,0,0,1-2.321-.346A2.808,2.808,0,0,0-705.052-1335.833Zm11.435-2.835a7.789,7.789,0,0,1-.181-.889,3.333,3.333,0,0,1,1.261-2.836,5.032,5.032,0,0,1,3.345-1.023,2.788,2.788,0,0,1,2.474,3.27,4.5,4.5,0,0,1-4.031,3.708c-.043,0-.086,0-.128,0A2.955,2.955,0,0,1-693.617-1338.668Zm4.658.426a4.55,4.55,0,0,1-3.743-.518A2.241,2.241,0,0,0-688.959-1338.242Zm-3.626-2.219a1.161,1.161,0,0,0,.687,1.508,10.164,10.164,0,0,0,1.395.372,3.744,3.744,0,0,0,2.167-.881c.177-.132.438-.216.529-.389a1.836,1.836,0,0,0-.829-2.418,2.53,2.53,0,0,0-1.072-.229A3.018,3.018,0,0,0-692.585-1340.461Zm-34.055,2.849a1.8,1.8,0,0,1-.2-1.881,3.607,3.607,0,0,1,.154-.486.753.753,0,0,1,.384-.343c1.693-.368,3.39-.715,5.087-1.063a11.511,11.511,0,0,1,1.289-.22.65.65,0,0,1,.526.183c.244.45.417.938.616,1.412l-.1.042a1.251,1.251,0,0,1-.7,1.231,11.354,11.354,0,0,1-1.807.614c-1.037.286-2.085.534-3.128.8-.186.047-.37.107-.558.146a2.66,2.66,0,0,1-.545.064A1.18,1.18,0,0,1-726.641-1337.612Zm6.212-3.086q-2.572.46-5.142.935a.9.9,0,0,0-.695.88c.1.763.379,1.1,1.143.868.928-.287,1.876-.508,2.82-.743.607-.151,1.226-.258,1.83-.42a1.558,1.558,0,0,0,.591-.34c.275-.241.254-.578.065-1.019-.077-.178-.177-.227-.286-.227A1.994,1.994,0,0,0-720.429-1340.7Zm21.1-1.915a4.223,4.223,0,0,1-2.443-1.174,2.4,2.4,0,0,1,.652-3.96,5.972,5.972,0,0,1,3.937-.5,2.364,2.364,0,0,1,1.811,3.345,3.793,3.793,0,0,1-3.6,2.306Q-699.147-1342.6-699.327-1342.614Zm.535-.959a2.556,2.556,0,0,0,2.391-1.584,1.411,1.411,0,0,0-.98-2.115,4.111,4.111,0,0,0-3.7.755c-.272.2-.288.41-.091.638a2.9,2.9,0,0,0,.587.541c.364.236.758.427,1.139.638.137.077.272.159.407.239a3.147,3.147,0,0,1-2.307-.43A2.854,2.854,0,0,0-698.792-1343.572Zm-44.944-.077a2.166,2.166,0,0,1,.076-.654,2.851,2.851,0,0,1,.5-.755c.552-.6,1.126-1.176,1.7-1.752.062-.062.191-.057.288-.084-.009.111.019.248-.036.327-.13.186-.312.335-.453.515-.532.679-1.055,1.364-1.582,2.046-.1.135-.211.269-.317.4Zm45.6-.574,1.24-.662c.03.433-.345.669-1.032.669C-698-1344.217-698.066-1344.219-698.138-1344.224Zm-42.8-.1a1.326,1.326,0,0,1,.12-.428,6.3,6.3,0,0,1,.738-.915c.523-.5,1.081-.971,1.627-1.45a3.412,3.412,0,0,1,.287-.2l.079.063c-.026.069-.032.162-.082.2a11.917,11.917,0,0,0-2.513,2.651c-.035.053-.113.079-.171.118Zm4.82-2.674c.33-.37.68-.724,1.039-1.067.038-.036.118-.029.2-.022a1.015,1.015,0,0,0,.107.006c-.005.09.026.216-.022.264-.449.453-.912.893-1.373,1.334-.021.02-.069.013-.237.038A2.8,2.8,0,0,1-736.119-1347Zm48.191-21.646c-.092-.045-.13-.2-.2-.307.077-.146.109-.317.21-.38a15.011,15.011,0,0,1,1.511-.864c.119-.057.346.107.523.169-.077.167-.108.4-.238.49a16.377,16.377,0,0,1-1.419.9.353.353,0,0,1-.171.037A.518.518,0,0,1-687.928-1368.647Zm-5.468-4.059a.578.578,0,0,1,.032-.529c.548-.794,1.125-1.57,1.7-2.343a2.757,2.757,0,0,1,.378-.366c.472,0,.679.32.488.647a11.718,11.718,0,0,1-.962,1.415,14.721,14.721,0,0,1-1.08,1.13.514.514,0,0,1-.337.173A.267.267,0,0,1-693.4-1372.706Zm-3.6-.371a5.527,5.527,0,0,1,.03-.684,14.716,14.716,0,0,1,.827-4.251c.024-.073.045-.146.075-.217a.484.484,0,0,1,.613-.324c.314.083.382.318.3.6-.136.463-.3.92-.428,1.384-.34,1.184-.667,2.372-1.012,3.554-.031.105-.16.182-.243.272A1.022,1.022,0,0,1-697-1373.077Z" transform="translate(770 1382)" fill="url(#linear-gradient)"/>
</svg>
