<svg xmlns="http://www.w3.org/2000/svg" xmlns:xlink="http://www.w3.org/1999/xlink" width="76.461" height="81.22" viewBox="0 0 76.461 81.22">
  <defs>
    <linearGradient id="linear-gradient" x1="0.858" y1="0.02" x2="0.199" y2="1" gradientUnits="objectBoundingBox">
      <stop offset="0" stop-color="#ff9d00"/>
      <stop offset="1" stop-color="#ff0076"/>
    </linearGradient>
  </defs>
  <g id="Group_155" data-name="Group 155" transform="translate(-771.867 -340.912)">
    <path id="Union_2" data-name="Union 2" d="M-738.977-1300.984a8.152,8.152,0,0,1-4.556-2.259c-.082-.085-.16-.172-.239-.258l.029-.047c.1.03.209.058.313.09a23.3,23.3,0,0,0,7.682,1.07,22.937,22.937,0,0,0,11.093-3.339,31.359,31.359,0,0,0,8-6.93,30.851,30.851,0,0,0,4.212-6.276,35.692,35.692,0,0,0,2.43-6.8c.392-1.529.735-3.07,1.114-4.663.068.33.141.617.185.908a14.4,14.4,0,0,1-.49,6.279,29.289,29.289,0,0,1-3.66,7.732,34.285,34.285,0,0,1-11.2,10.93,26.467,26.467,0,0,1-9.409,3.5,19.439,19.439,0,0,1-3.087.266A13.907,13.907,0,0,1-738.977-1300.984Zm-16.359-3.974a1.515,1.515,0,0,0-.334-.072l.4.2-.006.06c-.366-.03-.734-.046-1.1-.09a10.311,10.311,0,0,1-4.993-2.105,19.1,19.1,0,0,1-4.977-5.776,26.668,26.668,0,0,1-3.332-9.193,18.508,18.508,0,0,1,.268-8.11,10.223,10.223,0,0,1,3.291-5.286,3.264,3.264,0,0,1,.563-.387c-.127.2-.255.4-.381.6a17.088,17.088,0,0,0-2.52,7.205,21.839,21.839,0,0,0,6.021,17.958,22.824,22.824,0,0,0,6.335,4.726.628.628,0,0,0,.494.049c1.13-.3,2.267-.577,3.4-.865.254-.064.506-.14.759-.211.005-.022.012-.043.018-.066a2.726,2.726,0,0,0-.536-.224,11.215,11.215,0,0,1-4.859-2.315,20.945,20.945,0,0,1-5.225-6.319,28.034,28.034,0,0,1-3.3-9.361,18.617,18.617,0,0,1,.175-7.572,10.98,10.98,0,0,1,1.427-3.346.6.6,0,0,1,.181-.193c-.052.328-.1.655-.164,1.036a2.888,2.888,0,0,1,1.151-.724,2.617,2.617,0,0,1-1.017,1.115.509.509,0,0,0-.261.417c-.1.891-.215,1.781-.3,2.692a3.775,3.775,0,0,1,1.832-.937,1.82,1.82,0,0,1-.706.723c-.312.191-.659.326-.986.5-.072.038-.167.115-.174.182-.035.347-.045.7-.066,1.08.661-.389,1.261-.9,2.093-.6a6.034,6.034,0,0,1-2.093.886v1.529c.22-.068.42-.14.627-.191s.391-.069.587-.1l.038.1a1.7,1.7,0,0,1-.282.271c-.259.157-.536.286-.8.442a.294.294,0,0,0-.133.207c0,.3.033.59.058.948a3.588,3.588,0,0,1,1.559-.671l.049.061a1.439,1.439,0,0,1-.238.27c-.377.255-.76.5-1.151.736-.113.068-.166.124-.142.258.037.2.055.41.085.642a3.608,3.608,0,0,1,1.258-.423,2.118,2.118,0,0,1-.935.7c-.21.07-.276.154-.217.374.079.292.118.594.183.935a2.166,2.166,0,0,1,1.578-.5,3.9,3.9,0,0,1-1.522.712,23.927,23.927,0,0,0,1.1,3.58,1.777,1.777,0,0,1,1.461-.275,3.428,3.428,0,0,1-1.426.366l.455,1.131,1.146-.241a1.144,1.144,0,0,1-1.064.439c.229.448.439.868.662,1.28.024.044.136.067.2.058.317-.042.631-.1.949-.149a2.13,2.13,0,0,1,.337.015,2.264,2.264,0,0,1-1.193.624c.19.3.364.6.557.879.031.046.155.046.232.039.335-.031.668-.076,1-.109a2.275,2.275,0,0,1,.31.017,1.692,1.692,0,0,1-1.343.378c.167.238.294.437.443.617.039.048.145.043.222.055.458.07.919.129,1.375.212a.761.761,0,0,1,.353.219,2.145,2.145,0,0,1-1.646-.051c.236.3.437.563.655.813.038.043.159.04.232.02a2.492,2.492,0,0,1,1.31.017,2.473,2.473,0,0,1-1.3.23,1.022,1.022,0,0,0,.093.145q1.189,1.226,2.379,2.452a.21.21,0,0,0,.292.034,1.92,1.92,0,0,1,1.026-.288,2,2,0,0,1-.986.547c.311.264.59.509.882.74.044.034.149.014.218-.007.334-.1.665-.217,1.047-.342a1.11,1.11,0,0,1-.985.585c.33.25.617.476.916.685.045.032.149,0,.218-.025.324-.115.644-.243.969-.356a.707.707,0,0,1,.313-.019,1.862,1.862,0,0,1-1.137.684c.419.279.793.535,1.176.775.048.031.148-.017.222-.037.287-.076.573-.156.86-.234.017.041.034.083.052.124l-.713.418a1.211,1.211,0,0,0,.942.29c1.172-.222,2.357-.375,3.537-.554l.141-.021a5.03,5.03,0,0,1-.18-.573c-.071-.377-.117-.758-.174-1.137-.066-.436-.142-.87-.194-1.307a14.937,14.937,0,0,1,.461-5.506,28.17,28.17,0,0,1,3.589-8.076,38.433,38.433,0,0,1,10.186-10.934,20.829,20.829,0,0,1,6.995-3.439c.834-.211,1.7-.287,2.556-.427a.581.581,0,0,0,.247-.074,15.908,15.908,0,0,1,4.462-2.044c.628-.219,1.252-.451,1.875-.686a.758.758,0,0,0,.292-.2c1.193-1.344,2.349-2.72,3.575-4.033a44.071,44.071,0,0,0,7.715-11.24,27.937,27.937,0,0,0,2.416-7.529,18.169,18.169,0,0,0-1.021-10.014,17.788,17.788,0,0,0-1.908-3.443c-.018-.026-.034-.053-.051-.08a7.232,7.232,0,0,1,2.425,2.152,11.714,11.714,0,0,1,2.069,5.549,22.289,22.289,0,0,1-1.327,10.354,43.085,43.085,0,0,1-7.708,13.477,28.415,28.415,0,0,1-4.974,4.733.6.6,0,0,0-.141.129,6.214,6.214,0,0,1-3.708,2.419c-1.148.288-2.321.476-3.481.721a6.609,6.609,0,0,0-1.687.518c-1.782.915-3.611,1.743-5.361,2.714a31.936,31.936,0,0,0-9.547,8,32.545,32.545,0,0,0-5.1,9.084,42.417,42.417,0,0,0-1.637,6.151c-.2.941-.347,1.892-.51,2.839a.548.548,0,0,0,.055.317q.955,1.875,1.922,3.743c.017.033.031.067.068.147a4.027,4.027,0,0,1-2.025-1.965c-.248.127-.485.257-.731.37a4.657,4.657,0,0,1-3.2.394.372.372,0,0,0-.28.112,4.31,4.31,0,0,1-1.879,1.167,3.315,3.315,0,0,1-.845.106A5.153,5.153,0,0,1-755.336-1304.959Zm12.019-2.454a14.623,14.623,0,0,1-1.691-2.82,6.7,6.7,0,0,1-.442-3.065,14.074,14.074,0,0,1,2.267-7.107,26.193,26.193,0,0,1,4.234-5.156c1.613-1.551,3.229-3.1,4.91-4.575a23.745,23.745,0,0,1,8.775-5.044,17.92,17.92,0,0,1,3.267-.682,4.554,4.554,0,0,1,1.969.238c.852.293,1.682.654,2.521.986-.008.034-.016.068-.025.1l-.284-.027-.287-.028a17.7,17.7,0,0,0-7.153.9,21.628,21.628,0,0,0-8.148,4.781c-1.531,1.416-3.1,2.789-4.605,4.234a20.714,20.714,0,0,0-4.846,6.817,13.89,13.89,0,0,0-1.138,6.333,14.279,14.279,0,0,0,.883,4.124c.027.073.052.147.078.22l-.046.03C-743.158-1307.238-743.245-1307.319-743.317-1307.413Zm-6.4-4.4a13.169,13.169,0,0,1-2.93-9.009,11.228,11.228,0,0,1,1.5-4.84,39.4,39.4,0,0,1,5.342-7.8c.173-.2.339-.405.509-.609a1.109,1.109,0,0,0,.058-.1c-.809-.74-1.607-1.494-2.431-2.219a23.074,23.074,0,0,0-4.21-3.07,9.3,9.3,0,0,0-3.417-1.152,6.956,6.956,0,0,0-4.152.85,13.472,13.472,0,0,0-3.566,2.938.969.969,0,0,1-.341.246c.033-.076.066-.151.1-.227a1.335,1.335,0,0,0,.091-.263,5.788,5.788,0,0,1-2.392,1.013,3.707,3.707,0,0,1,.248-.307,7.692,7.692,0,0,1,2.423-1.536.64.64,0,0,0,.291-.252,11.084,11.084,0,0,1,1.437-2.041,6.015,6.015,0,0,1,4.766-2,11.808,11.808,0,0,1,8.086,3.427,14.572,14.572,0,0,1,3.194,4.461c.066-.069.119-.122.167-.177a37.885,37.885,0,0,1,4.9-4.85,21.588,21.588,0,0,1,10.435-4.605,12.341,12.341,0,0,1,4.707.058,10.611,10.611,0,0,1,4.665,2.479.579.579,0,0,1,.048.093,21.882,21.882,0,0,0-4.594-1.077,25.689,25.689,0,0,0-4.739.072,2.913,2.913,0,0,1,.268,1.975,17.4,17.4,0,0,1,4.5-.933l.027.078c-.122.066-.24.14-.366.2-1.433.644-2.879,1.258-4.3,1.931a40.666,40.666,0,0,0-10.775,7.243,31.213,31.213,0,0,0-4.5,5.444c-1.409,2.134-2.754,4.31-4.127,6.468a1.042,1.042,0,0,1-.256.305c.054-.338.1-.679.167-1.013.075-.352.168-.7.271-1.047s.222-.664.34-1.014a4.914,4.914,0,0,1-1.591-.287c.255-.236.769-.23,1.72,0a23.6,23.6,0,0,1,2.569-4.491,2.338,2.338,0,0,1-1.736-.775l.021-.074c.317.084.637.152.947.255s.608.24.926.368l1-1.294a2.243,2.243,0,0,1-1.3-1.273,4.506,4.506,0,0,1,1.475,1.059l1.173-1.356a1.858,1.858,0,0,1-1.319-1.456l.064-.063,1.382,1.261,1.609-1.462a4.164,4.164,0,0,1-1.266-1.858,2.5,2.5,0,0,1,1.285,1.747l1.949-1.786a6.965,6.965,0,0,1-1.076-1.9,2.034,2.034,0,0,1,1.18,1.808l1.926-1.554a5.651,5.651,0,0,1-.877-2.465,4.02,4.02,0,0,1,1.14,2.278,31.3,31.3,0,0,1,7.506-4.233c-.033-.359-.088-.7-.089-1.039s.055-.669.091-1.049c-.367.062-.743.119-1.115.192a19.27,19.27,0,0,0-7.92,3.658,35.734,35.734,0,0,0-6.265,6.227c-.891,1.1-1.791,2.209-2.579,3.386-.824,1.23-1.548,2.531-2.26,3.831a15.459,15.459,0,0,0-.984,2.24,8.1,8.1,0,0,0-.309,3.85c.122.895.31,1.78.512,2.669a4.9,4.9,0,0,1,.8-2.732c.076,2.815,1.043,5.458,1.547,8.189l-.059.034-.946-1.273.456,1.266-.047.035C-749.068-1311.1-749.414-1311.439-749.718-1311.813Zm-7.657.289,1.69-.274a1.14,1.14,0,0,1-.957.487A1.4,1.4,0,0,1-757.375-1311.524Zm-5.735-9.676a2.547,2.547,0,0,1,1.74-.737,2.431,2.431,0,0,1-1.719.737Zm10.557-15.209a39.038,39.038,0,0,0-1.369,7.13,33.366,33.366,0,0,0,.425,7.257A12.188,12.188,0,0,1-752.553-1336.409Zm41.048,11.782a4.592,4.592,0,0,0-.823-3.073c-1.063-1.7-2.156-3.376-3.237-5.062-.235-.367-.475-.732-.714-1.1l.049-.056c.391.256.795.5,1.173.772a12.883,12.883,0,0,1,3.67,3.886,5.58,5.58,0,0,1,.847,3.181,4.917,4.917,0,0,1-1.144,2.8C-711.62-1323.762-711.561-1324.2-711.5-1324.627Zm-37.87-.169a1.764,1.764,0,0,1,1.549.257,2.429,2.429,0,0,1-.4.035A2.457,2.457,0,0,1-749.375-1324.8Zm1.091-1.532,1.147.467a1.067,1.067,0,0,1-.325.052A.879.879,0,0,1-748.284-1326.328Zm-4.555-7.668a2.234,2.234,0,0,1,1.216.115,3.494,3.494,0,0,1,2.029,2.092,12.315,12.315,0,0,1,.383,1.318l-.087.038A18.736,18.736,0,0,0-752.839-1334Zm45.405,1.282a23.578,23.578,0,0,1,2.362-3.332c1.4-1.75,2.8-3.491,4.057-5.345a34.679,34.679,0,0,0,5.655-13.947,42.444,42.444,0,0,0,.509-8.294c0-.046,0-.093,0-.14a9.726,9.726,0,0,1,1.157,3.522,18.518,18.518,0,0,1-.357,6.594,36.6,36.6,0,0,1-4.047,10.322,49.742,49.742,0,0,1-4.052,6.224,17.33,17.33,0,0,1-4.323,4.071c-.291.184-.6.347-.9.518-.047.027-.1.045-.21.094C-707.514-1332.555-707.477-1332.636-707.434-1332.715Zm-54.991-.89a1.953,1.953,0,0,1-1.361.491A1.775,1.775,0,0,1-762.425-1333.6Zm25.85-5.673a2.221,2.221,0,0,1,.568,2.216A4.538,4.538,0,0,1-736.575-1339.277Zm1.965-.621a1.988,1.988,0,0,1,.079,1.832A3.116,3.116,0,0,1-734.611-1339.9Zm2.424-1.579a2.707,2.707,0,0,1-.033,2.155A3.08,3.08,0,0,1-732.187-1341.478Zm4.675-.894a1.541,1.541,0,0,1,.03,1.281A1.78,1.78,0,0,1-727.511-1342.372Zm-23.371.841c.066-.4.129-.794.2-1.189a11.493,11.493,0,0,1,.913-3.1,7.438,7.438,0,0,1,1.677-2.211.939.939,0,0,0,.2-.236,36.671,36.671,0,0,1,4.643-6.6,62.794,62.794,0,0,1,11.17-10.266,47.154,47.154,0,0,1,12.669-6.641,30.935,30.935,0,0,1,8.092-1.593,13.753,13.753,0,0,1,5.841.806c.655.258,1.265.633,1.9.953l-.042.092c-.656-.1-1.311-.214-1.969-.309a29.427,29.427,0,0,0-6.6-.186,35.073,35.073,0,0,0-14.909,4.956,58.265,58.265,0,0,0-11.237,8.811,76.62,76.62,0,0,0-6.514,7.557c-.913,1.159-1.885,2.272-2.784,3.441a9.97,9.97,0,0,0-.843,1.5c-.565,1.087-1.109,2.186-1.684,3.268a10.21,10.21,0,0,1-.661.966Zm-8.7-1.084c.018-.423.016-.849.058-1.27a15.939,15.939,0,0,1,1.057-4.109,42.8,42.8,0,0,1,4.253-8.015,62.365,62.365,0,0,1,10.8-12.448,62.446,62.446,0,0,1,10.611-7.7,45.71,45.71,0,0,1,12.559-5.044,27.475,27.475,0,0,1,5.78-.8,22.358,22.358,0,0,1,3.154.313,14.747,14.747,0,0,1,1.52.355,2.108,2.108,0,0,1,.212.075c0,.013,0,.028,0,.042l-1.3.12a57.312,57.312,0,0,0-11.967,2.2,50.558,50.558,0,0,0-11.395,5.354,63.436,63.436,0,0,0-11.253,8.917,51.683,51.683,0,0,0-10.207,14.044c-1.264,2.575-2.472,5.177-3.706,7.767l-.1.211Zm64.174-21.979a48.17,48.17,0,0,0-3.523-5.815c-.849-1.246-1.676-2.507-2.574-3.716a32.77,32.77,0,0,0-3.7-3.873c-.7-.679-1.378-1.389-2.063-2.086-.077-.079-.141-.171-.211-.257a21.34,21.34,0,0,1,3.363,1.82,18.064,18.064,0,0,1,4.549,4.654,37.136,37.136,0,0,1,2.638,4.1,14.811,14.811,0,0,1,1.592,5.013c.009.071.013.143.022.257A.708.708,0,0,1-695.408-1364.594Z" transform="translate(1541.868 1722.912)" fill="url(#linear-gradient)"/>
  </g>
</svg>
