<svg xmlns="http://www.w3.org/2000/svg" xmlns:xlink="http://www.w3.org/1999/xlink" width="73.945" height="73.951" viewBox="0 0 73.945 73.951">
  <defs>
    <linearGradient id="linear-gradient" x1="1" x2="0" y2="1.098" gradientUnits="objectBoundingBox">
      <stop offset="0" stop-color="#ff9d00"/>
      <stop offset="1" stop-color="#ff0076"/>
    </linearGradient>
  </defs>
  <g id="Group_149" data-name="Group 149" transform="translate(830.271 -232.354)">
    <path id="Path_315" data-name="Path 315" d="M-830.271,270.551c.256-11.856,4.651-21.1,12.731-28.626a34.692,34.692,0,0,1,20.169-9.3c11.4-1.278,21.525,1.89,29.777,9.919A35.532,35.532,0,0,1-756.75,263.21a35.751,35.751,0,0,1-7.163,27.731,37.618,37.618,0,0,1-24.52,14.842c-11.051,1.825-20.848-1.163-29.256-8.509a35.868,35.868,0,0,1-11.959-21.133C-830.026,274.066-830.122,271.939-830.271,270.551Zm52.506-21.463c-16.724,12.181-30.689,26.976-43.349,43.12.148.189.246.322.352.448a36.791,36.791,0,0,0,8.823,7.606,33.625,33.625,0,0,0,15.2,4.974,2.256,2.256,0,0,0,1.23-.214,20.488,20.488,0,0,0,7.638-7.5,44.244,44.244,0,0,0,4.412-11.316c1.855-6.964,3.632-13.949,5.493-20.912,1.021-3.819,2.633-7.334,5.68-10.02.026-.023.02-.082.052-.235Zm-.78-.981a7.143,7.143,0,0,1-.747-.545,39.794,39.794,0,0,0-6.459-4.959,1.268,1.268,0,0,0-1.659-.062,8.715,8.715,0,0,1-1.667.848,71.837,71.837,0,0,1-11.077,3.632,113.942,113.942,0,0,0-13.526,4.018,27.841,27.841,0,0,0-11.942,8.437c-2.276,2.879-3.971,5.926-3.817,9.836a38.526,38.526,0,0,0,5.661,19.21c.577.93,1.228,1.815,1.841,2.714C-809.342,274.979-795.419,260.209-778.545,248.107Zm-14.719,57.146c.628,0,1.135.034,1.636-.008.887-.074,1.776-.154,2.653-.3a38.16,38.16,0,0,0,23.232-13.163,10.292,10.292,0,0,0,2.232-4.531,27.591,27.591,0,0,0,.141-10.9,52.015,52.015,0,0,0-7.543-19.428c-.121-.191-.27-.365-.413-.557a12.142,12.142,0,0,0-3,3.6,27.125,27.125,0,0,0-2.491,6.515c-1.936,7.292-3.786,14.607-5.808,21.875C-784.47,294.987-787.16,301.151-793.264,305.253Zm-34.956-44.346c2.747-4.953,7.026-8.138,12.046-10.375a66.622,66.622,0,0,1,8.05-2.912c4.394-1.313,8.863-2.373,13.259-3.677,2.263-.671,4.438-1.637,6.653-2.469a.906.906,0,0,0-.4-.449,47.84,47.84,0,0,0-17.237-5.117,2.506,2.506,0,0,0-1.171.227,37.189,37.189,0,0,0-18.53,17.656A31.592,31.592,0,0,0-828.221,260.907Zm58.124-5.4c5.828,9.653,9.581,19.747,7.826,31.254a1.834,1.834,0,0,0,.176-.224,35.664,35.664,0,0,0,4.053-25.221,8.185,8.185,0,0,0-4.881-6.263A7.514,7.514,0,0,0-770.1,255.511Zm1.6-12.893a35.972,35.972,0,0,0-13.214-7.683c-.141,2.867-1.746,4.755-3.682,6.315l7.889,6.108c1.359-.8,2.8-1.716,4.3-2.51S-770.131,243.388-768.493,242.618Zm8.562,12.863a31.577,31.577,0,0,0-7.567-11.865.809.809,0,0,0-.733-.05q-3.547,1.924-7.061,3.909c-.466.262-.891.6-1.311.881l5.581,6.017C-767.1,252.119-763.442,252.7-759.93,255.481Zm-23.156-20.969a34.369,34.369,0,0,0-21.154.6c.642.113,1.292.131,1.927.238a50.728,50.728,0,0,1,14.377,4.721,1.419,1.419,0,0,0,1.872-.206A7.663,7.663,0,0,0-783.087,234.512Z" fill="url(#linear-gradient)"/>
    <path id="Path_316" data-name="Path 316" d="M-527.133,413.553q-.718,1.678-1.435,3.355a74.237,74.237,0,0,0-3.068,10.5c-1.554,5.948-3.116,11.895-4.795,17.808a31.379,31.379,0,0,1-2.022,4.527,1.141,1.141,0,0,1-.648.54.986.986,0,0,1,.035-.363c2.229-4.123,3.369-8.62,4.54-13.11,1.474-5.648,2.945-11.3,4.488-16.926A21.659,21.659,0,0,1-527.133,413.553Z" transform="translate(-249.082 -155.007)" fill="url(#linear-gradient)"/>
    <path id="Path_317" data-name="Path 317" d="M-756.491,649.9c3.482,2.85,6.784,5.928,10.858,7.973C-747.406,658.175-754.638,652.457-756.491,649.9Z" transform="translate(-63.115 -357.186)" fill="url(#linear-gradient)"/>
    <path id="Path_318" data-name="Path 318" d="M-458.9,367.34l-3.378-4.116C-461.413,363.546-459.491,365.811-458.9,367.34Z" transform="translate(-314.798 -111.953)" fill="url(#linear-gradient)"/>
    <path id="Path_319" data-name="Path 319" d="M-692.93,653.382l2.815,6.066-.178.081-2.794-6.075Z" transform="translate(-117.354 -360.169)" fill="url(#linear-gradient)"/>
    <path id="Path_320" data-name="Path 320" d="M-665.354,677.513l-2.8-5.2.154-.083,2.816,5.2Z" transform="translate(-138.681 -376.296)" fill="url(#linear-gradient)"/>
    <path id="Path_321" data-name="Path 321" d="M-726.005,636.295l-1.05-4.646.146-.033,1.088,4.612Z" transform="translate(-88.296 -341.549)" fill="url(#linear-gradient)"/>
    <path id="Path_322" data-name="Path 322" d="M-646.081,342.546a246.182,246.182,0,0,0-27.075,24.384A161,161,0,0,1-646.081,342.546Z" transform="translate(-134.404 -94.264)" fill="url(#linear-gradient)"/>
    <path id="Path_323" data-name="Path 323" d="M-803.542,562.667a31.762,31.762,0,0,1-4.868-10.872,54.571,54.571,0,0,0,5.237,10.681Z" transform="translate(-18.701 -273.266)" fill="url(#linear-gradient)"/>
    <path id="Path_324" data-name="Path 324" d="M-515.115,315.232-518.942,312A10.69,10.69,0,0,1-515.115,315.232Z" transform="translate(-266.327 -68.131)" fill="url(#linear-gradient)"/>
    <path id="Path_325" data-name="Path 325" d="M-773.166,560.885l-.626-6.762.14-.014q.342,3.361.685,6.722Z" transform="translate(-48.315 -275.245)" fill="url(#linear-gradient)"/>
    <path id="Path_326" data-name="Path 326" d="M-784.421,536.4l.451,6.273A20.866,20.866,0,0,1-784.421,536.4Z" transform="translate(-39.183 -260.094)" fill="url(#linear-gradient)"/>
    <path id="Path_327" data-name="Path 327" d="M-413.126,430.093c-.908-2.863-1.7-5.814-2.783-8.651-1.077-2.815-2.451-5.517-3.727-8.338C-417.688,414.723-412.99,427.138-413.126,430.093Z" transform="translate(-351.278 -154.623)" fill="url(#linear-gradient)"/>
    <path id="Path_328" data-name="Path 328" d="M-449.672,648.981a14.736,14.736,0,0,0,3.744-6.372A10.5,10.5,0,0,1-449.672,648.981Z" transform="translate(-325.584 -350.953)" fill="url(#linear-gradient)"/>
    <path id="Path_329" data-name="Path 329" d="M-420.323,630.689l3.06-5.877A17.053,17.053,0,0,1-420.323,630.689Z" transform="translate(-350.69 -335.728)" fill="url(#linear-gradient)"/>
    <path id="Path_330" data-name="Path 330" d="M-391.919,607.593a11.774,11.774,0,0,1-2.25,4.969Z" transform="translate(-373.064 -320.998)" fill="url(#linear-gradient)"/>
    <path id="Path_331" data-name="Path 331" d="M-466.689,672.721l-3.062,3.514-.157-.133,3.076-3.475Z" transform="translate(-308.272 -376.632)" fill="url(#linear-gradient)"/>
    <path id="Path_332" data-name="Path 332" d="M-496.884,694.125l2.738-3.055.153.135-2.7,3.074Z" transform="translate(-285.196 -392.409)" fill="url(#linear-gradient)"/>
    <path id="Path_333" data-name="Path 333" d="M-516.063,702.366l2.94-3.21.142.129-2.93,3.222Z" transform="translate(-268.789 -399.326)" fill="url(#linear-gradient)"/>
    <path id="Path_334" data-name="Path 334" d="M-699.991,299.524c7.086-2.42,14.695-3.222,21.544-6.538l.1.167c-.47.265-.927.557-1.412.79a42.29,42.29,0,0,1-8.683,2.839C-692.3,297.684-696.142,298.609-699.991,299.524Z" transform="translate(-111.448 -51.868)" fill="url(#linear-gradient)"/>
    <path id="Path_335" data-name="Path 335" d="M-753.153,262c-6.609,2.344-11.563,6.843-15.978,12.2C-767.982,270.461-757.112,262.133-753.153,262Z" transform="translate(-52.302 -25.358)" fill="url(#linear-gradient)"/>
    <path id="Path_336" data-name="Path 336" d="M-362.549,402.282c-.919-2.5-2.059-4.826-4.757-6.1C-365.239,396.225-362.569,399.7-362.549,402.282Z" transform="translate(-396.044 -140.151)" fill="url(#linear-gradient)"/>
    <path id="Path_337" data-name="Path 337" d="M-351.625,532.815l2.589-7.893A26.993,26.993,0,0,1-351.625,532.815Z" transform="translate(-409.458 -250.277)" fill="url(#linear-gradient)"/>
    <path id="Path_338" data-name="Path 338" d="M-507.985,295.671a20.824,20.824,0,0,1,5.016,3.462l-.155.212Z" transform="translate(-275.7 -54.164)" fill="url(#linear-gradient)"/>
    <path id="Path_339" data-name="Path 339" d="M-450.767,301.037l-6.1,3.1A16.136,16.136,0,0,1-450.767,301.037Z" transform="translate(-319.426 -58.755)" fill="url(#linear-gradient)"/>
    <path id="Path_340" data-name="Path 340" d="M-414.945,370c1.395-1.382,5.281-1.53,6.267-.343A8.753,8.753,0,0,0-414.945,370Z" transform="translate(-355.291 -116.77)" fill="url(#linear-gradient)"/>
    <path id="Path_341" data-name="Path 341" d="M-368.5,352.949l-1.778-2.993.147-.088,1.783,2.99Z" transform="translate(-393.503 -100.527)" fill="url(#linear-gradient)"/>
    <path id="Path_342" data-name="Path 342" d="M-527.569,251.02c.251,1.535-1.235,3.783-2.871,4.342A10.272,10.272,0,0,0-527.569,251.02Z" transform="translate(-256.491 -15.968)" fill="url(#linear-gradient)"/>
    <path id="Path_343" data-name="Path 343" d="M-626.444,243.488a21.811,21.811,0,0,1,7.693-.786Z" transform="translate(-174.364 -8.788)" fill="url(#linear-gradient)"/>
  </g>
</svg>
