<svg xmlns="http://www.w3.org/2000/svg" xmlns:xlink="http://www.w3.org/1999/xlink" width="80.154" height="80.159" viewBox="0 0 80.154 80.159">
  <defs>
    <linearGradient id="linear-gradient" x1="0.5" x2="0.5" y2="1" gradientUnits="objectBoundingBox">
      <stop offset="0" stop-color="#ff9d00"/>
      <stop offset="1" stop-color="#ff0076"/>
    </linearGradient>
  </defs>
  <path id="Union_5" data-name="Union 5" d="M-5795.379-3376.378c-.744-2.67-.367-5.466-.71-8.287h-4.223c0,2.321.018,4.521-.013,6.72a8.261,8.261,0,0,1-.29,1.46l-.422-.016a7.128,7.128,0,0,1-.212-1.214c-.007-2.338.019-4.675.031-7.013,0-.19.069-.439-.025-.562-1.628-2.158-1.74-4.752-2.1-7.27-.14-.969-.24-1.946-.436-2.948-2.216,6.4-6.139,11.189-12.793,13.655a11.356,11.356,0,0,1,5.356,3.873c.324.412.709.852.112,1.309-.539.409-.868-.013-1.186-.4a11.6,11.6,0,0,0-5.519-3.992,2.2,2.2,0,0,0-1.084-.085,32.188,32.188,0,0,1-14.659-.079,3.477,3.477,0,0,0-1.58.1c-2.454.635-4.644,1.649-5.816,4.129-.125.265-.627.352-.955.521-.159-.394-.548-.867-.443-1.172.742-2.195,2.56-3.25,4.566-4.054a14.076,14.076,0,0,1,1.512-.4,19.566,19.566,0,0,1-11.511-12.029c-.168.877-.315,1.76-.509,2.633-.454,2.029-.96,4.047-1.382,6.081a17,17,0,0,0-.2,2.281c-.137,1.949-.258,3.9-.412,5.845a1.488,1.488,0,0,1-.471.892,54.462,54.462,0,0,1-.38-8.569c-1.2.075-2.334.113-3.458.253-.177.022-.414.5-.427.776-.093,2.11-.128,4.223-.208,6.333a7.992,7.992,0,0,1-.218,1.177l-.266.04a4.253,4.253,0,0,1-.315-.979c-.123-1.787-.2-3.579-.307-5.367-.229-3.733-.479-7.466-.709-11.2-.228-3.707-.493-7.41-.643-11.12a8.964,8.964,0,0,1,1.323-5.613,8.219,8.219,0,0,1,2.35-2.327c2.226-1.356,4.491-.629,6.269,1.858,1.553-2.713,4.15-3.366,6.964-3.469,1.674-.062,3.349-.058,5.024-.053.727,0,1.453,0,2.18,0,.374,0,.748,0,1.148,0,.093-1.344.2-2.552.236-3.762a.893.893,0,0,0-.445-.617,13.994,13.994,0,0,1-7.576-13.173,43.194,43.194,0,0,1,.5-6.876c.967-5.579,4.486-8.91,9.846-10.331a14.869,14.869,0,0,1,15.911,5.67,15.41,15.41,0,0,1,2.457,9.783c-.062,1.375-.179,2.747-.26,4.122a12.136,12.136,0,0,1-6.836,10.8c-.592.306-.853.592-.728,1.3.165.941.174,1.909.262,3.034.346,0,.715,0,1.083,0,2.816.037,5.635.013,8.448.133,2.569.11,4.828.964,6.259,3.312,2.673-3.155,5.966-3.126,8.248.066a8.525,8.525,0,0,1,1.1,2.221,19.19,19.19,0,0,1,.467,7.618c-.377,5.269-.9,10.527-1.234,15.8-.16,2.488-.026,4.993-.063,7.488a12.41,12.41,0,0,1-.258,1.709Zm-39.961-21.387a6.09,6.09,0,0,1,.481,1.749c.158,2.3.131,4.612.393,6.894a13.864,13.864,0,0,0,1.149,4.111,4.848,4.848,0,0,0,4.308,2.906,36.5,36.5,0,0,0,8.326-.316,4.368,4.368,0,0,0,3.319-2.311,6.928,6.928,0,0,0,.988-2.473c.322-2.912.49-5.84.715-8.745-5.073-1.011-7.406-3.465-6.973-7.235a6.193,6.193,0,0,1,6.528-5.722,6.476,6.476,0,0,1,4.518,1.831,6.565,6.565,0,0,1,1.762,6.4c1.639,0,3.171-.03,4.7.015.631.018.863-.2.869-.811.025-2.239.183-4.481.078-6.712-.12-2.588-1.247-3.865-3.8-4.493a14.842,14.842,0,0,0-3.411-.384c-6.3-.04-12.6-.031-18.907-.025l-2.556,0c-2.923-.006-5.847-.01-8.768.075-3.009.087-5.136,1.831-5.432,4.7a76.711,76.711,0,0,0-.054,7.725c2.524,0,5.05,0,7.578,0h.019A3.894,3.894,0,0,1-5835.341-3397.765Zm-11.814-2.373c.428,7.615,5.207,15.7,14.852,17.423a10.115,10.115,0,0,1-2.765-7.354c-.022-1.023.074-2.055-.031-3.068a23.489,23.489,0,0,0-.693-4.326c-.59-1.967-1.772-2.663-3.821-2.67-2.269-.007-4.539-.037-6.808-.053h-.016C-5846.677-3400.187-5846.917-3400.154-5847.155-3400.138Zm37.448.038c-.21,0-.484.272-.6.489a6.62,6.62,0,0,1-4.238,3.347.781.781,0,0,0-.683.851c-.059,1.373-.224,2.745-.222,4.117,0,2.847-.259,5.6-2.267,7.983,6.583-1.478,13.51-10.482,13.178-16.809-.813,0-1.625,0-2.435,0C-5807.89-3400.125-5808.8-3400.121-5809.707-3400.1Zm8.862,14.068h4.553c.327-3.761.661-7.6.994-11.427-3.237-.964-4.087-1.686-7-5.894C-5803.552-3399.391-5802.3-3390.043-5800.845-3386.031Zm-54.918-11.414c.33,3.822.661,7.652.983,11.388l4.419-.362c.891-5.482,2.342-10.934,1.368-16.578C-5851.4-3399.393-5852.387-3398.583-5855.764-3397.446Zm33.783-5.276a5.817,5.817,0,0,0,5.875,5.934,5.923,5.923,0,0,0,5.818-5.722,5.831,5.831,0,0,0-5.912-5.794h-.066A5.452,5.452,0,0,0-5821.98-3402.721Zm20.714-8.968a2.89,2.89,0,0,0-1.314,2.873,24.638,24.638,0,0,0,.387,3.982,11.774,11.774,0,0,0,3.738,5.368,5.73,5.73,0,0,0,3.369,1.534c.056-2.962.205-5.865.128-8.761a6.339,6.339,0,0,0-1.936-4.477,3.744,3.744,0,0,0-2.577-1.109A2.982,2.982,0,0,0-5801.266-3411.689Zm-51.943-.155a5.618,5.618,0,0,0-2.782,4.362c-.528,3.155-.081,6.3.177,9.509,3-.366,6.961-4.827,7.021-7.684.023-1.176.224-2.348.309-3.524a2.242,2.242,0,0,0-.129-1,3.209,3.209,0,0,0-2.957-2.087A3.477,3.477,0,0,0-5853.209-3411.843Zm22.013-2.887h10.885v-3.5a16.967,16.967,0,0,1-11.084-.216C-5831.324-3417.121-5831.262-3415.95-5831.2-3414.73Zm-7.328-18.493a11.146,11.146,0,0,0,5.141,11.738,13.113,13.113,0,0,0,14.361.739c4.881-2.666,6.281-7.167,5.96-12.609-.246.4-.4.651-.561.905-.726,1.169-1.464,2.327-2.172,3.506a2.638,2.638,0,0,1-2.579,1.313c-5.344-.163-10.687-.292-16.03-.455-1.726-.053-2.282-.586-2.747-2.243-.287-1.023-.708-2.009-1.07-3.013Zm18.6-7.478c-1.412,2.171-2.9,4.3-4.226,6.521-.939,1.571-1.669,3.268-2.532,4.984.293.047.415.081.537.085,2.4.076,4.8.084,7.2.253a2.4,2.4,0,0,0,2.564-1.374c1.114-1.978,2.362-3.88,3.45-5.872a1.638,1.638,0,0,0-.171-1.5,16.017,16.017,0,0,0-5.454-3.842,1.377,1.377,0,0,0-.646-.049c-.1.007-.2.015-.3.015C-5819.641-3441.215-5819.766-3440.946-5819.927-3440.7Zm-8.033-.917c-1.556,2.3-3.1,4.621-4.574,6.974-1.027,1.64-1.941,3.353-2.945,5.1a2.822,2.822,0,0,0,.618.188c2.4.078,4.8.166,7.2.182.251,0,.587-.391.75-.677,1.536-2.691,2.974-5.439,4.585-8.083a34.6,34.6,0,0,1,2.814-3.543h-.009c-.2-.2-.36-.518-.59-.576-1.425-.359-2.867-.645-4.295-.983a3.939,3.939,0,0,0-.907-.112A3.1,3.1,0,0,0-5827.96-3441.618Zm-1.444-1.232c-3.362.606-6.392,1.849-8.542,4.669a4.314,4.314,0,0,0,.119,4.509,22.7,22.7,0,0,1,1.55,2.628,9.943,9.943,0,0,1,.412,1c2.7-4.549,5.049-9.127,8.722-13.058C-5827.986-3443.015-5828.7-3442.977-5829.4-3442.85Zm2.1-5.3c-5.351.595-9.764,4.035-10.539,8.218,5.51-6,16.366-6.153,24.131-.275a13.182,13.182,0,0,0-12.139-8.023A13.183,13.183,0,0,0-5827.308-3448.154Zm11.2,49.647a3.992,3.992,0,0,1-4.011-3.924,3.833,3.833,0,0,1,3.925-3.952,3.912,3.912,0,0,1,4.021,3.882,4,4,0,0,1-3.915,4Zm-2.676-4.175a2.587,2.587,0,0,0,2.579,2.663,2.646,2.646,0,0,0,2.673-2.588,2.587,2.587,0,0,0-2.666-2.574h-.016A2.455,2.455,0,0,0-5818.78-3402.681Zm-42.077-12.712c-.372-.517-.861-.951-1.225-1.475a6.983,6.983,0,0,1-.544-1.207c.179-.472.311-.9.5-1.3a8.621,8.621,0,0,1,.981-1.864c.917-1.113.443-2.223.139-3.337-.063-.231-.351-.434-.58-.578-.92-.583-1.846-1.156-2.791-1.693a1.821,1.821,0,0,1-1.005-1.809c.178-4.229.143-3.779,3.609-4.85.853-.263,1.8-.387,1.979-1.5a3.093,3.093,0,0,0,.068-1.179c-.327-1.3-.717-2.589-1.1-3.876a1.993,1.993,0,0,1,.661-2.23c2.678-2.474,2.663-2.488,5.846-.767.366.2.739.383,1.107.577a2.008,2.008,0,0,0,2.928-.865c.564-1.041,1.135-2.078,1.672-3.134a2.027,2.027,0,0,1,2.248-1.253c.38.05.766.062,1.15.081,2.2.11,2.546.389,3.148,2.478.3,1.043.667,2.073.935,3.125.068.269-.128.6-.2.91-.281-.187-.709-.312-.815-.57-.476-1.153-.888-2.333-1.263-3.521a1.631,1.631,0,0,0-1.543-1.172c-1.578-.268-2.622.16-3.177,1.756a10.269,10.269,0,0,1-1.271,2.357,3.727,3.727,0,0,1-1.105.807,3.03,3.03,0,0,1-3.63-.1,11.307,11.307,0,0,0-2.4-1.188,1.67,1.67,0,0,0-1.285.153,6.086,6.086,0,0,0-1.472,1.36,1.344,1.344,0,0,0-.187,1.02c.281,1.215.646,2.41.973,3.614a3.393,3.393,0,0,1-2.123,4.014c-.787.266-1.575.539-2.373.774a1.271,1.271,0,0,0-1,1.245,11.593,11.593,0,0,0-.028,1.917,1.328,1.328,0,0,0,.549.807c.842.58,1.716,1.119,2.6,1.631a3.031,3.031,0,0,1,1.138,1.528c.8,1.64.3,3-.506,4.378-.048.083-.091.169-.132.256-1.138,2.458-1.25,1.886.6,3.91a1.244,1.244,0,0,0,1.5.437c.724-.252,1.521-.311,2.217-.611a3.838,3.838,0,0,1,3.954.5c.224.153.293.525.433.8-.265.1-.644.359-.78.266-1.874-1.284-3.643-.206-5.379.29a3.974,3.974,0,0,1-1.084.173A2.259,2.259,0,0,1-5860.857-3415.394Zm10.874-1.509a11.788,11.788,0,0,1-5.582-18.992,11.859,11.859,0,0,1,13.813-3.112,2.593,2.593,0,0,1,.6.3c.1.079.193.331.146.392-.1.119-.313.252-.437.218a10.868,10.868,0,0,1-1.068-.424,11.237,11.237,0,0,0-13.6,4.545,11.037,11.037,0,0,0,1.8,13.88c3.805,3.514,9.848,4.351,13.781,1.849a36.058,36.058,0,0,0,2.852-2.229l.29.162a6.136,6.136,0,0,1-.611.839,10.629,10.629,0,0,1-7.694,3.279A14.456,14.456,0,0,1-5849.983-3416.9Zm.528-3.764c-3.331-1.359-5.231-4.147-5.217-8.265a7.633,7.633,0,0,1,4.338-6.456,7.879,7.879,0,0,1,8.3.33c.48.287.877.642.524,1.229-.383.636-.857.284-1.312.024a6.588,6.588,0,0,0-7.1-.143,6.712,6.712,0,0,0-3.4,6.063,6.664,6.664,0,0,0,4.523,6.184,6.744,6.744,0,0,0,7.575-1.634c.384-.409.75-1.373,1.458-.646.58.595-.249,1.072-.624,1.466a7.753,7.753,0,0,1-5.7,2.541A8.882,8.882,0,0,1-5849.455-3420.667Zm38.6-.325a2.528,2.528,0,0,1-1.842-2.423,2.878,2.878,0,0,1,2.024-2.536,2.43,2.43,0,0,1,2.867,1.373.949.949,0,0,0,1.132.565,16.807,16.807,0,0,0,1.9-.215,4.162,4.162,0,0,0,1.857-.852c1.55-1.607,2.984-3.327,4.46-5l-.107-.239c-.951,0-1.9-.035-2.852.024a1.213,1.213,0,0,0-.7.509,2.5,2.5,0,0,1-2.948,1,2.491,2.491,0,0,1-1.825-2.232,2.853,2.853,0,0,1,1.846-2.666,2.449,2.449,0,0,1,3.085,1.431,1.14,1.14,0,0,0,1.329.752,4.82,4.82,0,0,1,.864,0c1.5.1,2.838.01,3.916-1.362a3.341,3.341,0,0,1,2.242-.851c1.979-.116,3.969-.069,5.95-.009.335.009.658.4.985.621-.34.2-.677.564-1.025.577-1.694.06-3.4.1-5.087,0a3.634,3.634,0,0,0-3.234,1.469c-1.572,1.9-3.3,3.665-4.847,5.579a5.557,5.557,0,0,1-5.157,2.338,1.69,1.69,0,0,0-1.874,1.029,2.264,2.264,0,0,1-2.049,1.27A3.1,3.1,0,0,1-5810.856-3420.992Zm-.561-2.364a1.435,1.435,0,0,0,1.441,1.264,1.357,1.357,0,0,0,1.274-1.312,1.435,1.435,0,0,0-1.314-1.388h-.006A1.524,1.524,0,0,0-5811.417-3423.356Zm7.182-9.23a1.577,1.577,0,0,0-1.387,1.36,1.37,1.37,0,0,0,1.459,1.321,1.288,1.288,0,0,0,1.254-1.3,1.442,1.442,0,0,0-1.318-1.379Zm-21.677,6.234c.5.7.605,4.316,0,5.262C-5825.911-3423-5825.911-3424.675-5825.913-3426.352Zm2.043,4.581q.108-1.877.215-3.752l.183.012v3.752C-5823.6-3421.763-5823.737-3421.768-5823.869-3421.771Zm-4.316-.445c-.007-1.1,0-2.209,0-3.315h.3v3.726l-.194.025A2.062,2.062,0,0,1-5828.185-3422.215Zm32.945-1.869a2.5,2.5,0,0,1,.125-3.6,2.228,2.228,0,0,1,3.521.09c.817,1.32,1.842,1.41,3.11,1.281a3.108,3.108,0,0,1,1.144.022c.27.079.471.387.7.593-.242.2-.459.52-.729.57a10.046,10.046,0,0,1-1.718.027,2.207,2.207,0,0,0-2.477,1.074,1.881,1.881,0,0,1-1.627.783A3,3,0,0,1-5795.24-3424.085Zm.556-1.71a1.383,1.383,0,0,0,1.518,1.254,1.293,1.293,0,0,0,1.187-1.367,1.441,1.441,0,0,0-1.288-1.316h-.006A1.558,1.558,0,0,0-5794.684-3425.8Zm6.642-12.1h-9.788v0h-9.883a2,2,0,0,1-.756-.047c-.2-.085-.464-.349-.448-.508a.861.861,0,0,1,.439-.618,2.537,2.537,0,0,1,.946-.066q9.74,0,19.479,0a1.823,1.823,0,0,1,.755.046c.216.106.486.375.487.574s-.26.477-.476.586a.736.736,0,0,1-.329.06C-5787.754-3437.879-5787.9-3437.9-5788.042-3437.9Zm-15.4-4.741a1.254,1.254,0,0,0-1.279-.705c-1.474,0-2.945-.038-4.416-.1a9.037,9.037,0,0,1-1.39-.272v-.377a5.476,5.476,0,0,1,1.1-.274c1.662-.077,3.327-.083,4.987-.186a1.392,1.392,0,0,0,.939-.551c1.227-1.881,3.309-1.948,4.518-.065a1.152,1.152,0,0,0,1.13.64c1.947-.034,3.9-.013,6.04-.013-1.485-1.828-2.89-3.5-4.23-5.229a4.018,4.018,0,0,0-3.4-1.6c-1.854-.013-3.709-.14-5.556-.294-.687-.059-.762.446-1.024.8a2.561,2.561,0,0,1-3.662.5,2.418,2.418,0,0,1-.523-3.477,2.446,2.446,0,0,1,4.073-.126,11.847,11.847,0,0,1,.854,1.482c1.979,0,4.054.055,6.124-.018a4.608,4.608,0,0,1,3.983,1.886c1.283,1.594,2.66,3.115,3.932,4.719a3.092,3.092,0,0,0,2.907,1.3,3.267,3.267,0,0,1,.4-.007c.091,0,.184.006.275,0,.471-.015,1.008.012.952.615-.022.228-.558.576-.869.584-2.526.077-5.053.088-7.581.115-.543.006-1.091.03-1.631-.016a2.448,2.448,0,0,0-2.568,1.12,2.037,2.037,0,0,1-1.735.854A2.751,2.751,0,0,1-5803.44-3442.638Zm.9-1.244a1.407,1.407,0,0,0,1.428,1.269,1.3,1.3,0,0,0,1.279-1.378,1.466,1.466,0,0,0-1.29-1.323h-.017A1.578,1.578,0,0,0-5802.542-3443.882Zm-5.576-9.882a1.585,1.585,0,0,0-1.344,1.407,1.406,1.406,0,0,0,1.5,1.284,1.331,1.331,0,0,0,1.207-1.353,1.439,1.439,0,0,0-1.312-1.34Z" transform="translate(5865.884 3455.501)" stroke="rgba(0,0,0,0)" stroke-width="1" fill="url(#linear-gradient)"/>
</svg>
