<svg xmlns="http://www.w3.org/2000/svg" xmlns:xlink="http://www.w3.org/1999/xlink" width="87.636" height="69.877" viewBox="0 0 87.636 69.877">
  <defs>
    <linearGradient id="linear-gradient" x1="0.5" x2="0.5" y2="1" gradientUnits="objectBoundingBox">
      <stop offset="0" stop-color="#ff9d00"/>
      <stop offset="1" stop-color="#ff0076"/>
    </linearGradient>
  </defs>
  <path id="Union_6" data-name="Union 6" d="M-4775.944-3410.256a138.985,138.985,0,0,1-17.351-1.735c-.283-.052-.557-.128-.822-.2-.122-.035-.245-.069-.368-.1-2.321-.6-3.465-1.9-3.6-4.115a13.333,13.333,0,0,0-.431-2.342c-.131-.533-.266-1.084-.356-1.64a1.867,1.867,0,0,1,.482-1.52,1.827,1.827,0,0,1,1.484-.279c1.961.412,3.949.854,5.872,1.281q1.469.326,2.94.649c4.921,1.077,9.881,1.076,15.392.967a3.244,3.244,0,0,1,1.235.308c.162.065.315.125.464.172l.1.032.068-.253.306-.024c1.76-.137,3.506-.264,5.244-.39,4.328-.314,8.415-.611,12.577-1.052a34.82,34.82,0,0,0,4.9-1.01c.878-.225,1.786-.458,2.689-.649a1.884,1.884,0,0,1,1.492.333,1.7,1.7,0,0,1,.339,1.463c-.061.311-.119.623-.179.935a37.294,37.294,0,0,1-1.023,4.422,3.418,3.418,0,0,1-1.892,2.022l-.576.185a32.217,32.217,0,0,1-6.658,1.628c-5.816.558-11.545,1.051-17.323,1.051C-4772.6-3410.122-4774.268-3410.163-4775.944-3410.256Zm-20.174-8.578a22.084,22.084,0,0,0,.772,2.994,2.026,2.026,0,0,0,1.23.914l.565.145a55.441,55.441,0,0,0,6.6,1.417,117.976,117.976,0,0,0,27.173.634c2.79-.281,5.613-.816,8.343-1.332,1.014-.192,2.063-.391,3.1-.574a2.178,2.178,0,0,0,2-2.289,12.308,12.308,0,0,1,.417-2.188c.029-.112.058-.226.086-.341-7.731,2.157-15.4,2.37-23.506,2.6l-2.087.059.178-.663c-.093.014-.185.031-.277.049a4.353,4.353,0,0,1-1,.1c-1.56-.072-3.145-.162-4.677-.248-3.061-.173-6.225-.352-9.334-.4a36.382,36.382,0,0,1-9.717-1.585l-.016,0C-4796.218-3419.309-4796.168-3419.07-4796.118-3418.834Zm12.773-2.351a55.292,55.292,0,0,1-13.734-2.079,1.785,1.785,0,0,1-1.545-1.8l-1.11.177-.1-.4a78.166,78.166,0,0,0-5.825-15.556c-.956-1.978-2.076-3.923-3.16-5.8-.506-.877-1.029-1.784-1.529-2.685a2.867,2.867,0,0,1-.141-.3,4.964,4.964,0,0,1-.735.059,2.872,2.872,0,0,1-2.036-.714,2.72,2.72,0,0,1-.706-2.435,3.142,3.142,0,0,1,2.357-2.9c1.563-.182,2.709.621,3.5,2.456l.2.469-.481.14c-.09.026-.181.05-.273.071l.171.1-.55,1.167.009.005c.662.433,1.309.866,1.934,1.286,1.452.975,2.824,1.9,4.26,2.711a4.4,4.4,0,0,0,4.021.459,4.239,4.239,0,0,0,2.4-3.153,38.169,38.169,0,0,0,.929-6.292,64.135,64.135,0,0,0-.194-7.291,2.041,2.041,0,0,1,.256-1.293,1.625,1.625,0,0,1-.235.059,3.8,3.8,0,0,1-.565.044,2.541,2.541,0,0,1-2.629-2.263c-.269-1.612.849-3.525,2.215-3.792,1.719-.334,3.084.725,3.655,2.835l.221.818-.784-.278c-.066-.024-.133-.045-.2-.067a3.113,3.113,0,0,1-.889,2.141,2.593,2.593,0,0,1,.525-.055l.242,0,.13.208c.389.622.771,1.248,1.155,1.873.848,1.385,1.725,2.816,2.646,4.176a22.688,22.688,0,0,0,5.71,6.139c1.659,1.14,3.044,1.557,4.231,1.278a5.031,5.031,0,0,0,3-2.735,30.284,30.284,0,0,0,2.889-7.272c.632-2.393,1.054-4.9,1.462-7.322.16-.951.325-1.934.5-2.9.135-.745.128-1.083-.5-1.43-1.168-.64-1.525-2.031-.955-3.719a2.513,2.513,0,0,1,2.358-1.962c1.726-.044,2.651.687,3.22,2.521l.144.467-.467.1-.135.029.07.041-.147.36a4.172,4.172,0,0,0-.135.409,2.059,2.059,0,0,1-.576,1.089,1.911,1.911,0,0,0-.639,2.028c.062.51.121,1.021.182,1.532.5,4.258,1.016,8.66,2.538,12.747a19.7,19.7,0,0,0,2.167,4.214,4.064,4.064,0,0,0,5.515,1.466,13.275,13.275,0,0,0,5.023-4.026c1.3-1.664,2.548-3.414,3.76-5.106.726-1.013,1.476-2.062,2.229-3.082a1.6,1.6,0,0,1,.765-.49c.1-.038.188-.073.262-.112l.145-.075a2.619,2.619,0,0,1-1.455-1.956c-.326-1.576.714-3.525,2.061-3.862a2.606,2.606,0,0,1,2.137.331,3.6,3.6,0,0,1,1.42,2.489l.137.792-.654-.269a2.762,2.762,0,0,1-1.85,2.639,3.555,3.555,0,0,1-.672.067,2.863,2.863,0,0,1-.721-.09l.063.188c.027.081.063.162.1.244a1.84,1.84,0,0,1,.205.8l-.038,1.1c-.143,3.957-.289,8.049.622,11.982a10.017,10.017,0,0,0,1.224,2.907,2.882,2.882,0,0,0,3.313,1.356c3.126-.672,5.436-2.7,7.718-4.905a1.948,1.948,0,0,0,.043-.394c0-.074.007-.147.012-.215.014-.162.013-.331.012-.511a4.1,4.1,0,0,1,.072-.974,2.789,2.789,0,0,1,2.466-2.446h.035c1.779.032,2.69.832,3.249,2.857l.225.813-.782-.269-.253-.087a2.6,2.6,0,0,1-.5,1.831,2.111,2.111,0,0,1-1.639.913,1.393,1.393,0,0,0-1.287.8,80.195,80.195,0,0,0-9.879,22.538,3.786,3.786,0,0,1-2.52,2.726,35.957,35.957,0,0,1-9.767,2.149,139.215,139.215,0,0,1-14.175.673C-4773.691-3420.668-4778.745-3420.908-4783.345-3421.185Zm-14.141-4.561.053.2a1.911,1.911,0,0,1,.328.09c3.717,1.419,7.6,1.878,11.927,2.295a111.753,111.753,0,0,0,22.429.306c1.086-.111,2.192-.21,3.262-.306a65.212,65.212,0,0,0,13.2-2.105,3.317,3.317,0,0,0,2.479-2.536c1.441-4.654,3.163-9.263,4.662-13.218a34.31,34.31,0,0,1,1.767-3.732c.111-.214.225-.431.338-.65-.522.229-1.021.447-1.52.668a6.837,6.837,0,0,1-5.74.347,7.052,7.052,0,0,1-3.549-4.573,28.276,28.276,0,0,1-.99-9.072c.007-.607.006-1.214,0-1.857a35.465,35.465,0,0,1-7.021,8.066,14.653,14.653,0,0,1-3.27,1.97,5.752,5.752,0,0,1-7.159-1.8,16.108,16.108,0,0,1-3.155-6.515c-.533-2.024-.975-4.024-1.442-6.142-.05-.227-.1-.454-.15-.681a38.829,38.829,0,0,1-3.222,10.648c-1.045,2.058-2.5,4.252-5.361,4.919a6.968,6.968,0,0,1-5.281-1.185,22.755,22.755,0,0,1-6.323-6.3c-.62-.852-1.209-1.733-1.834-2.666l-.116-.173c0,.133.007.265.01.4a30.969,30.969,0,0,1-.067,3.859,40.545,40.545,0,0,1-1.181,6.949,5.791,5.791,0,0,1-5.716,4.481,10.728,10.728,0,0,1-5.015-1.528A92.849,92.849,0,0,1-4797.485-3425.746Zm66.278-27.356a1.016,1.016,0,0,0-.378.628.868.868,0,0,0,.2.376,2.924,2.924,0,0,0,1.325-.063c.074-.021.226-.2.337-.327.04-.047.084-.1.13-.149-.26-.089-.5-.17-.75-.244-.084-.025-.17-.055-.259-.085a2.4,2.4,0,0,0-.55-.144A.137.137,0,0,0-4731.207-3453.1Zm-80.335-.1a.6.6,0,0,0-.307.553,1.317,1.317,0,0,0,.118.53,3.453,3.453,0,0,0,1.393-.031c.067-.019.222-.206.313-.317l.032-.04a2.316,2.316,0,0,1-.783-.462.944.944,0,0,0-.59-.268A.447.447,0,0,0-4811.542-3453.2Zm65.153-14.979a1.077,1.077,0,0,0-.371.687,1.264,1.264,0,0,0,.566.355l.124.032c.575.152.661.128.774-.223a.8.8,0,0,1,.577-.479,7.232,7.232,0,0,0-.787-.288,2.473,2.473,0,0,0-.671-.119A.44.44,0,0,0-4746.389-3468.177Zm-49.852-.224a.522.522,0,0,0-.336.256,1.907,1.907,0,0,0-.062.8,4.387,4.387,0,0,0,1.488.011,1.479,1.479,0,0,0,.339-.29l.08-.08a2.736,2.736,0,0,1-.888-.444.977.977,0,0,0-.562-.254A.4.4,0,0,0-4796.24-3468.4Zm25.075-8.259a.7.7,0,0,0-.483.339,1.421,1.421,0,0,0-.014.755c.6.366.934.483,1.288.078a2.841,2.841,0,0,1,.466-.414,1.872,1.872,0,0,1-.741-.492.749.749,0,0,0-.488-.268Z" transform="translate(4814.503 3479.499)" stroke="rgba(0,0,0,0)" stroke-width="1" fill="url(#linear-gradient)"/>
</svg>
