<svg class="w-40" xmlns="http://www.w3.org/2000/svg" viewBox="0 0 347.125 54.945"><g><g><g><path d="M17.262 54.447a24.916 24.916 0 0 1-5.945-2.238 20.256 20.256 0 0 1-5.661-4.239 20.144 20.144 0 0 1-4.046-7.171A30.874 30.874 0 0 1 .004 30.483 30.57 30.57 0 0 1 2.08 18.845a19.65 19.65 0 0 1 5.785-8.021 24.431 24.431 0 0 1 8.537-4.438 37.544 37.544 0 0 1 10.693-1.448A54.9 54.9 0 0 1 44.353 7.5l1.305 17.029h-.534a64.722 64.722 0 0 0-8.863-12.1c-3.2-3.385-6.19-5.095-8.931-5.095-2.642 0-4.909 1.741-6.789 5.259s-2.82 9.306-2.82 17.394a60.692 60.692 0 0 0 .869 10.951 20.8 20.8 0 0 0 2.308 6.935 10.683 10.683 0 0 0 3.013 3.387 5.886 5.886 0 0 0 3.311 1.053c3.11 0 4.648-1.906 4.648-5.721v-8.154q0-8.432-7.022-8.679v-.888h25.124v.525a8.262 8.262 0 0 0-2.108 2.895 17.077 17.077 0 0 0-.426 4.8v16.634h-.6a15.515 15.515 0 0 0-7.928-2.435 23.585 23.585 0 0 0-7.124 1.808 26.1 26.1 0 0 1-9.032 1.808 39.51 39.51 0 0 1-5.485-.459" fill="#fff"></path></g><g><path d="M79.488 54.908a7.765 7.765 0 0 1-6.273-2.314 7.439 7.439 0 0 1-1.707-5.408h-.135a13.806 13.806 0 0 1-4.538 5.443 11.987 11.987 0 0 1-7.236 2.235 9.889 9.889 0 0 1-7.011-2.451 8.145 8.145 0 0 1-2.615-6.179 8.968 8.968 0 0 1 1.707-5.308 14.381 14.381 0 0 1 4.908-4.149 44.5 44.5 0 0 1 6.7-2.96 78.826 78.826 0 0 1 8.218-2.278l.065-6.466c0-2.46-.945-3.718-2.815-3.718-1.618 0-2.963 1.179-3.995 3.505a30.935 30.935 0 0 0-2.213 8.277l-.41.066-9.484-4.252a15.388 15.388 0 0 1 6.305-6.83 22.726 22.726 0 0 1 12.175-2.9 21.292 21.292 0 0 1 7.145 1.056 12.17 12.17 0 0 1 4.428 2.484 9.4 9.4 0 0 1 2.247 3.707 14.9 14.9 0 0 1 .907 3.813c.059.928.07 2.062.031 3.676l-.275 13.22c0 1.534.509 2.314 1.509 2.314 1.053 0 1.955-.8 2.683-2.382l.605.273a11.074 11.074 0 0 1-3.657 5.138 11.553 11.553 0 0 1-7.27 2.386m-8.049-21.673c-4.051.986-6.1 3.8-6.1 8.372 0 3.34.947 5.035 2.815 5.035v-.034h.012a2.92 2.92 0 0 0 1.8-.678 3.933 3.933 0 0 0 1.207-1.431z" fill="#fff"></path></g><g><path d="M149.973 46.642a14.836 14.836 0 0 0 .53 4.877 7.506 7.506 0 0 0 2.489 2.838v.552h-20.766v-.552a8.178 8.178 0 0 0 2.485-2.835 14.109 14.109 0 0 0 .661-4.91c.033-1.8.066-6.674.066-14.593a6.007 6.007 0 0 0-1.093-3.942 3.233 3.233 0 0 0-2.519-1.317 4.3 4.3 0 0 0-3.575 2.421c.032.38.065.933.065 1.7v15.7a16.234 16.234 0 0 0 .5 4.91 7.27 7.27 0 0 0 2.348 2.836v.54h-20.662v-.56a8.886 8.886 0 0 0 2.485-2.863 13.691 13.691 0 0 0 .66-4.878c.1-6.606.133-11.481.133-14.593a5.828 5.828 0 0 0-1.16-3.942 3.417 3.417 0 0 0-2.583-1.315 4.171 4.171 0 0 0-3.511 2.427v17.4a16.23 16.23 0 0 0 .5 4.909 7.269 7.269 0 0 0 2.348 2.837v.553H88.747v-.553a7.877 7.877 0 0 0 2.45-2.8 14.634 14.634 0 0 0 .564-4.945V32.807a23.131 23.131 0 0 0-.53-6.224 11.469 11.469 0 0 0-2.383-3.667v-.484a74.825 74.825 0 0 0 17.451-3.217v7.3q4.621-7.158 11.424-7.159a13.035 13.035 0 0 1 2.548.277 13.292 13.292 0 0 1 2.882.97 8.671 8.671 0 0 1 2.948 2.279 8.981 8.981 0 0 1 1.887 3.842q4.622-7.369 11.625-7.368a11.731 11.731 0 0 1 2.882.38 14.717 14.717 0 0 1 3.345 1.419 7.855 7.855 0 0 1 3.147 3.526 13.64 13.64 0 0 1 1.22 6.126l-.234 15.841" fill="#fff"></path></g><g><path d="M171.125 54.908h-.085a19.917 19.917 0 0 1-13.585-4.768 17.079 17.079 0 0 1-5.412-13.486 15.839 15.839 0 0 1 5.406-13.078 21.249 21.249 0 0 1 13.686-4.358 18.437 18.437 0 0 1 12.129 3.711 12.46 12.46 0 0 1 4.469 10.052v.783l-21.727.066v.136a13.9 13.9 0 0 0 1.039 5.615 8.353 8.353 0 0 0 2.807 3.577 12.006 12.006 0 0 0 3.63 1.738 14.994 14.994 0 0 0 3.986.508 10.747 10.747 0 0 0 9.807-4.6l.413.213a18.893 18.893 0 0 1-5.8 10.421 16.273 16.273 0 0 1-10.766 3.468m-1.168-33.545c-1.348 0-2.329.87-2.911 2.586a28.619 28.619 0 0 0-1.039 7.765h8.111c-.136-6.845-1.524-10.318-4.124-10.318l-.031-.033z" fill="#fff"></path></g><g><path d="m190.913 52.876-1.444-12.593.5-.169a58.427 58.427 0 0 0 7.086 8.837 10.249 10.249 0 0 0 6.687 3.756 3.485 3.485 0 0 0 2.218-.711 2.43 2.43 0 0 0 .907-2.032 4.535 4.535 0 0 0-1.781-3.319 42.439 42.439 0 0 0-5.91-4.055 40.288 40.288 0 0 1-3.46-2.209c-.738-.542-1.746-1.356-2.988-2.438a9.991 9.991 0 0 1-2.722-3.656 11.406 11.406 0 0 1-.841-4.47 9.372 9.372 0 0 1 3.595-7.755 14.749 14.749 0 0 1 9.439-2.846 59.164 59.164 0 0 1 12.094 1.727l1.209 11.721-.538.136a55.355 55.355 0 0 0-6.685-8.034 9.728 9.728 0 0 0-6.145-3.448 2.814 2.814 0 0 0-1.946.711 2.555 2.555 0 0 0-.807 2.031 3.718 3.718 0 0 0 .453 1.861 6.043 6.043 0 0 0 1.882 1.761 26.21 26.21 0 0 0 2.387 1.49c.64.34 1.845.982 3.595 1.9a25.454 25.454 0 0 1 7.354 5.417 10.719 10.719 0 0 1 2.656 7.415 10.055 10.055 0 0 1-3.46 7.958 15.155 15.155 0 0 1-10.011 3.048 55.551 55.551 0 0 1-13.33-2.034" fill="#fff"></path></g><g><path d="M229.223 54.908a10.171 10.171 0 0 1-7.187-2.6 9.993 9.993 0 0 1-2.806-7.7V22.185h-2.945V20.69q12.888-6.924 16.848-12.179h.9v10.967h7.044l-.425 2.672h-6.484l-.2 19.916c-.034 3.782 1.3 5.691 4.045 5.691a5.492 5.492 0 0 0 4.01-2.013l.427.451a17.3 17.3 0 0 1-4.91 5.936 12.81 12.81 0 0 1-8.325 2.741v.033" fill="#fff"></path></g><g><path d="M271.976 54.908a7.654 7.654 0 0 1-6.272-2.314 7.428 7.428 0 0 1-1.708-5.408h-.134a13.8 13.8 0 0 1-4.541 5.443 11.985 11.985 0 0 1-7.236 2.235 9.881 9.881 0 0 1-7.009-2.451 8.144 8.144 0 0 1-2.617-6.179 8.982 8.982 0 0 1 1.707-5.308 14.378 14.378 0 0 1 4.91-4.152 44.293 44.293 0 0 1 6.7-2.96 78.893 78.893 0 0 1 8.218-2.278l.066-6.466c0-2.5-.92-3.718-2.816-3.718-1.618 0-2.96 1.179-3.989 3.505a30.862 30.862 0 0 0-2.217 8.277l-.411.066-9.485-4.252a15.408 15.408 0 0 1 6.307-6.83 22.731 22.731 0 0 1 12.177-2.9 21.281 21.281 0 0 1 7.14 1.059 12.162 12.162 0 0 1 4.428 2.484 9.419 9.419 0 0 1 2.25 3.707 15.074 15.074 0 0 1 .9 3.813c.059.928.071 2.062.033 3.676l-.273 13.22c0 1.534.509 2.314 1.509 2.314 1.053 0 1.955-.8 2.684-2.382l.605.273a11.069 11.069 0 0 1-3.658 5.138 11.227 11.227 0 0 1-7.269 2.386m-8.049-21.673c-4.051.986-6.1 3.8-6.1 8.372 0 3.34.949 5.035 2.816 5.035v-.034h.011a2.93 2.93 0 0 0 1.8-.678 3.959 3.959 0 0 0 1.206-1.431z" fill="#fff"></path></g><g><path d="M280.53 54.284a7.95 7.95 0 0 0 2.5-2.81 14.442 14.442 0 0 0 .574-4.96V31.461a15 15 0 0 0-.607-5.1 11.92 11.92 0 0 0-2.367-3.431v-.487a75.211 75.211 0 0 0 17.83-3.225l-.171 6.9h.241a9.525 9.525 0 0 1 3.316-4.718 10.071 10.071 0 0 1 6.607-2.082 11.061 11.061 0 0 1 3.012.484l-2.1 15.505h-.543c-3.654-5.2-6.5-7.8-8.538-7.838a1.507 1.507 0 0 0-1.521.937v18.178a10.949 10.949 0 0 0 .777 4.927 9.033 9.033 0 0 0 3.415 2.845v.555H280.63z" fill="#fff"></path></g><path d="M0 54.945h347.125V0H0z" fill="none"></path><g><path d="M330.264 32.915a16.5 16.5 0 0 1-16.615-16.333A16.5 16.5 0 0 1 330.264.247a16.494 16.494 0 0 1 16.615 16.335 16.494 16.494 0 0 1-16.615 16.333m-10.077-17.672v2.68h8.718v8.6h2.717v-8.6h8.708v-2.68h-8.709V6.635h-2.717v8.608z" fill="#ffffff"></path></g></g></g></svg>