<svg xmlns="http://www.w3.org/2000/svg" xmlns:xlink="http://www.w3.org/1999/xlink" width="616.48" height="129.445" viewBox="0 0 616.48 129.445">
  <defs>
    <linearGradient id="linear-gradient" x1="1.07" y1="-0.436" x2="-0.151" y2="1.674" gradientUnits="objectBoundingBox">
      <stop offset="0" stop-color="#ff9d00"/>
      <stop offset="1" stop-color="#ff0076"/>
    </linearGradient>
    <linearGradient id="linear-gradient-2" x1="0.5" y1="0" x2="0.5" y2="1" xlink:href="#linear-gradient"/>
  </defs>
  <g id="Group_6166" data-name="Group 6166" transform="translate(-384.138 -296.892)">
    <g id="Group_6164" data-name="Group 6164" transform="translate(-95.862 47.729)">
      <text id="Let_s_get_started" data-name="Let’s get started" transform="translate(771 336.712)" fill="#fff" font-size="76" font-family="Inter" font-weight="800" letter-spacing="-0.025em"><tspan x="-290" y="0">Let’s get started</tspan></text>
      <path id="Brnded_Elements_BlackSet-14" d="M2.777,16.771c10.3-1.285,20.64-2.331,31.057-3.311,6.918-.651,13.842-1.247,20.792-1.83,7.278-.612,14.57-1.176,21.868-1.757q7.292-.581,14.582-1.2,17.045-1.435,34.1-2.795,25.769-2.018,51.393-3.885c.985-.047,1.715-.53,1.632-1.079s-.952-.957-1.935-.91c-21.124.52-42.348.978-63.574,1.914-8.485.375-16.957.811-25.4,1.392q-8.459.581-16.858,1.372-17.543,1.675-34.764,4.1C24.148,10.393,12.843,12.321,1.6,14.42c-1.165.181-1.846.854-1.522,1.5S1.612,16.952,2.777,16.771Z" transform="matrix(0.998, 0.07, -0.07, 0.998, 835.168, 338.565)" fill="url(#linear-gradient-2)"/>
      <path id="Brnded_Elements_BlackSet-27" d="M713.629,688.725c-.377-.72-3.495-1.143-4.052-.448a20.974,20.974,0,0,0-1.538,1.622,3.487,3.487,0,0,0-.375.869,2.493,2.493,0,0,0-.078.88c.076.689,1.01,1.651,1.282,2.26.492,1.111,4.384.557,5.023-.521a6.706,6.706,0,0,0,.834-1.617,2.409,2.409,0,0,0,.083-.807,3.023,3.023,0,0,0-.2-.817,13.876,13.876,0,0,0-.98-1.421Zm13.608-83.489c-1.871,4.683-3.7,9.052-5.371,13.4-1.178,3.07-2.272,6.062-3.294,9.052-.878,2.571-1.707,5.113-2.435,7.668-.74,2.6-1.406,5.2-1.958,7.825-1.109,5.252-1.9,10.535-2.518,16a232.366,232.366,0,0,0-1.321,24.209,1.6,1.6,0,0,0,3.189.3c1.79-10.151,4.089-19.062,6.458-27.766,1-3.683,2.05-7.29,3.026-10.937.65-2.432,1.277-4.872,1.847-7.346,1.165-5.053,2.24-10.18,3.313-15.546,1.01-5.053,1.844-10.244,2.834-15.78a1.958,1.958,0,1,0-3.766-1.075Z" transform="translate(365.397 -354.651)" fill="url(#linear-gradient-2)"/>
    </g>
  </g>
</svg>
